<svg width="60" height="60" viewBox="0 0 60 60" fill="none" xmlns="http://www.w3.org/2000/svg">
<g clip-path="url(#clip0_3452_1981)">
<path fill-rule="evenodd" clip-rule="evenodd" d="M8.66524 59.3239C13.4509 59.3239 17.3305 55.4443 17.3305 50.6586V38.3271C17.3305 33.5414 13.4509 29.6618 8.66524 29.6618C3.87956 29.6618 0 33.5414 0 38.3271V50.6586C0 55.4443 3.87956 59.3239 8.66524 59.3239Z" fill="#1EF396"/>
<path fill-rule="evenodd" clip-rule="evenodd" d="M51.3347 59.3237C56.1204 59.3237 59.9999 55.4441 59.9999 50.6584V8.66554C59.9999 3.87986 56.1204 0.000301361 51.3347 0.000301361C46.549 0.000301361 42.6694 3.87986 42.6694 8.66554V50.6584C42.6694 55.4441 46.549 59.3237 51.3347 59.3237Z" fill="#1EF396"/>
<path fill-rule="evenodd" clip-rule="evenodd" d="M30.0002 59.3237C34.7859 59.3237 38.6654 55.4441 38.6654 50.6584V22.3756C38.6654 17.5899 34.7859 13.7103 30.0002 13.7103C25.2145 13.7103 21.335 17.5899 21.335 22.3756V50.6584C21.335 55.4441 25.2145 59.3237 30.0002 59.3237Z" fill="#1EF396"/>
<mask id="mask0_3452_1981" style="mask-type:luminance" maskUnits="userSpaceOnUse" x="-180" y="-226" width="1231" height="693">
<path d="M-179.802 466.356H1050.08V-225.454H-179.802V466.356Z" fill="white"/>
</mask>
<g mask="url(#mask0_3452_1981)">
<path d="M51.335 17.3305C56.1207 17.3305 59.9999 13.4506 59.9999 8.66558C59.9999 3.87928 56.1207 1.71661e-05 51.335 1.71661e-05C46.5493 1.71661e-05 42.6694 3.87928 42.6694 8.66558C42.6694 13.4506 46.5493 17.3305 51.335 17.3305Z" fill="#00BF72"/>
</g>
</g>
<defs>
<clipPath id="clip0_3452_1981">
<rect width="60" height="59.3238" fill="white"/>
</clipPath>
</defs>
</svg>
