<svg xmlns="http://www.w3.org/2000/svg" width="1368.743" height="642.444" viewBox="0 0 1368.743 642.444">
  <g id="Component_16_1" data-name="Component 16 – 1" transform="translate(0.728 1.479)">
    <path id="Path_29" data-name="Path 29" d="M0,2525.12l110.114-33.5,169.156,1.752,325.623-94.436L815,2364.991l270.346-142.553,134.73-36.141L1366,1987.521v620.965H0Z" transform="translate(0 -1967.521)" fill="#fcf3f0"/>
    <path id="Path_30" data-name="Path 30" d="M0,2505.12l110.114-33.5,169.156,1.752,325.623-94.436L815,2344.991l270.346-142.553,134.73-36.141L1366,1967.521" transform="translate(0 -1967.521)" fill="none" stroke="#2666ef" stroke-width="5"/>
    <path id="Path_31" data-name="Path 31" d="M0,2572.6l186.567-49.694,166.1,24.847L548,2464.178l188.7,36.141L935.465,2364.79l207.467,18.071L1366,2161.5v446.989H0Z" transform="translate(0 -1967.521)" fill="#e6eefc"/>
  </g>
</svg>
