<svg id="Checkmark_Icon" data-name="Checkmark Icon" xmlns="http://www.w3.org/2000/svg" xmlns:xlink="http://www.w3.org/1999/xlink" width="60" height="60" viewBox="0 0 60 60">
  <defs>
    <clipPath id="clip-path">
      <rect id="Rectangle_39" data-name="Rectangle 39" width="60" height="60" stroke="#2666ef" stroke-width="1"/>
    </clipPath>
  </defs>
  <g id="Group_74" data-name="Group 74">
    <g id="Group_20" clip-path="url(#clip-path)">
      <path id="Path_1" d="M55,28A27,27,0,1,1,28,1h0A26.888,26.888,0,0,1,55,28" transform="translate(2 2)" fill="none"/>
      <path id="Path_2" d="M30,60A30,30,0,1,1,60,30,30.088,30.088,0,0,1,30,60M30,6A24,24,0,1,0,54,30h0A24.071,24.071,0,0,0,30,6" fill="#2666ef" stroke="#defdfc" stroke-width="2"/>
      <path id="Path_3" d="M15.209,30.109a2.728,2.728,0,0,1-2.4-1.2l-6.3-8.1a2.9,2.9,0,0,1,.3-4.2,2.9,2.9,0,0,1,4.2.3h0l4.2,5.1,12.3-15a2.977,2.977,0,0,1,4.5,3.9h0l-14.4,17.7a3.059,3.059,0,0,1-2.4,1.5Z" transform="translate(11.491 11.891)" fill="#2666ef" stroke="#defdfc" stroke-width="2"/>
    </g>
  </g>
</svg>
