<svg width="62" height="61" viewBox="0 0 62 61" fill="none" xmlns="http://www.w3.org/2000/svg">
<g clip-path="url(#clip0_3452_2018)">
<mask id="mask0_3452_2018" style="mask-type:luminance" maskUnits="userSpaceOnUse" x="-167" y="-490" width="1157" height="651">
<path d="M-166.619 160.488H989.161V-489.638H-166.619V160.488Z" fill="white"/>
</mask>
<g mask="url(#mask0_3452_2018)">
<path d="M4.22462 11.8825C1.89139 11.8825 0 13.7745 0 16.1077V55.8599C0 58.1932 1.89139 60.0846 4.22462 60.0846H56.8596C59.1928 60.0846 61.0842 58.1932 61.0842 55.8599V16.1077C61.0842 13.7745 59.1928 11.8825 56.8596 11.8825H4.22462Z" fill="#1EF396"/>
</g>
<path fill-rule="evenodd" clip-rule="evenodd" d="M46.8216 23.2512C50.5092 23.2512 53.4986 20.2618 53.4986 16.5742V6.67721C53.4986 2.98958 50.5092 0.000169754 46.8216 0.000169754C43.1339 0.000169754 40.1445 2.98958 40.1445 6.67721V16.5742C40.1445 20.2618 43.1339 23.2512 46.8216 23.2512Z" fill="#1EF396"/>
<path fill-rule="evenodd" clip-rule="evenodd" d="M14.2625 23.251C17.9501 23.251 20.9395 20.2616 20.9395 16.5739V6.67697C20.9395 2.98934 17.9501 -7.43866e-05 14.2625 -7.43866e-05C10.5749 -7.43866e-05 7.58545 2.98934 7.58545 6.67697V16.5739C7.58545 20.2616 10.5749 23.251 14.2625 23.251Z" fill="#1EF396"/>
<mask id="mask1_3452_2018" style="mask-type:luminance" maskUnits="userSpaceOnUse" x="-167" y="-490" width="1157" height="651">
<path d="M-166.619 160.488H989.161V-489.638H-166.619V160.488Z" fill="white"/>
</mask>
<g mask="url(#mask1_3452_2018)">
<path d="M46.8221 24.9799C50.5097 24.9799 53.4991 21.9905 53.4991 18.3028C53.4991 14.6152 50.5097 11.6258 46.8221 11.6258C43.1344 11.6258 40.145 14.6152 40.145 18.3028C40.145 21.9905 43.1344 24.9799 46.8221 24.9799Z" fill="#00BF72"/>
</g>
<mask id="mask2_3452_2018" style="mask-type:luminance" maskUnits="userSpaceOnUse" x="-167" y="-490" width="1157" height="651">
<path d="M-166.619 160.488H989.161V-489.638H-166.619V160.488Z" fill="white"/>
</mask>
<g mask="url(#mask2_3452_2018)">
<path d="M14.2625 24.9799C17.9502 24.9799 20.9395 21.9905 20.9395 18.3028C20.9395 14.6152 17.9502 11.6258 14.2625 11.6258C10.5748 11.6258 7.58545 14.6152 7.58545 18.3028C7.58545 21.9905 10.5748 24.9799 14.2625 24.9799Z" fill="#00BF72"/>
</g>
</g>
<defs>
<clipPath id="clip0_3452_2018">
<rect width="61.0842" height="60.0846" fill="white"/>
</clipPath>
</defs>
</svg>
