<svg width="60" height="59" viewBox="0 0 60 59" fill="none" xmlns="http://www.w3.org/2000/svg">
<g id="Group 564">
<path id="Vector" fill-rule="evenodd" clip-rule="evenodd" d="M5.625 3.23706H54.375C55.8649 3.24345 57.2919 3.83453 58.3454 4.88164C59.3989 5.92875 59.9936 7.3471 60 8.82792V21.8102H0V8.82792C0.00514774 7.3467 0.599433 5.92762 1.65321 4.88024C2.70699 3.83285 4.13474 3.24218 5.625 3.23706ZM17.7295 7.96891C18.6286 7.96891 19.5075 8.2339 20.2551 8.73038C21.0026 9.22685 21.5853 9.93252 21.9294 10.7581C22.2734 11.5837 22.3634 12.4922 22.188 13.3687C22.0126 14.2452 21.5797 15.0502 20.9439 15.6821C20.3082 16.314 19.4982 16.7444 18.6164 16.9187C17.7345 17.093 16.8205 17.0036 15.9899 16.6616C15.1592 16.3196 14.4492 15.7405 13.9497 14.9974C13.4502 14.2544 13.1836 13.3808 13.1836 12.4872C13.1836 11.2889 13.6625 10.1396 14.5151 9.29229C15.3676 8.44494 16.5238 7.96891 17.7295 7.96891ZM42.041 7.96891C42.9401 7.96891 43.819 8.2339 44.5666 8.73038C45.3142 9.22685 45.8968 9.93252 46.2409 10.7581C46.5849 11.5837 46.675 12.4922 46.4996 13.3687C46.3242 14.2452 45.8912 15.0502 45.2555 15.6821C44.6197 16.314 43.8097 16.7444 42.9279 16.9187C42.0461 17.093 41.132 17.0036 40.3014 16.6616C39.4707 16.3196 38.7607 15.7405 38.2612 14.9974C37.7617 14.2544 37.4951 13.3808 37.4951 12.4872C37.4951 11.2889 37.9741 10.1396 38.8266 9.29229C39.6791 8.44494 40.8354 7.96891 42.041 7.96891Z" fill="#EF4136"/>
<path id="Vector_2" d="M54.375 58.7233H5.625C4.13514 58.7169 2.70813 58.1258 1.65462 57.0787C0.60112 56.0316 0.00642469 54.6133 0 53.1325L0 19.4126H60V53.1227C59.9974 54.6056 59.4043 56.0272 58.3502 57.0767C57.2962 58.1262 55.8669 58.7182 54.375 58.7233Z" fill="#808080"/>
<path id="Vector_3" fill-rule="evenodd" clip-rule="evenodd" d="M6.22546 56.9325H53.7743C54.946 56.9274 56.0682 56.4625 56.8967 55.639C57.7252 54.8155 58.193 53.7001 58.1981 52.5355V19.4126H1.80164V52.5258C1.8055 53.6908 2.27282 54.8069 3.10161 55.6307C3.9304 56.4545 5.05338 56.9189 6.22546 56.9228V56.9325Z" fill="white"/>
<path id="Vector_4" fill-rule="evenodd" clip-rule="evenodd" d="M42.0418 7.10034C43.2969 7.09901 44.5137 7.53029 45.4847 8.32071C46.4558 9.11113 47.121 10.2118 47.3671 11.4351C47.6132 12.6584 47.4249 13.9286 46.8343 15.0294C46.2437 16.1302 45.2873 16.9933 44.1282 17.4718C42.969 17.9502 41.6788 18.0144 40.4774 17.6533C39.276 17.2922 38.2378 16.5282 37.5396 15.4915C36.8414 14.4548 36.5265 13.2096 36.6485 11.968C36.7705 10.7264 37.322 9.56527 38.2088 8.68248L38.2625 8.63395C39.2719 7.65097 40.6287 7.10039 42.0418 7.10034ZM42.0418 7.96906C42.9409 7.96906 43.8198 8.23406 44.5674 8.73053C45.3149 9.22701 45.8976 9.93268 46.2417 10.7583C46.5857 11.5839 46.6758 12.4924 46.5003 13.3688C46.3249 14.2453 45.892 15.0504 45.2562 15.6823C44.6205 16.3142 43.8105 16.7445 42.9287 16.9189C42.0468 17.0932 41.1328 17.0037 40.3022 16.6617C39.4715 16.3198 38.7615 15.7406 38.262 14.9976C37.7625 14.2546 37.4959 13.381 37.4959 12.4874C37.4959 11.289 37.9748 10.1398 38.8274 9.29244C39.6799 8.4451 40.8361 7.96906 42.0418 7.96906Z" fill="#C72B20"/>
<path id="Vector_5" fill-rule="evenodd" clip-rule="evenodd" d="M17.7295 7.10034C18.9846 7.09901 20.2014 7.53029 21.1724 8.32071C22.1435 9.11113 22.8087 10.2118 23.0548 11.4351C23.3009 12.6584 23.1126 13.9286 22.522 15.0294C21.9314 16.1302 20.975 16.9933 19.8159 17.4718C18.6567 17.9502 17.3665 18.0144 16.1651 17.6533C14.9637 17.2922 13.9254 16.5282 13.2273 15.4915C12.5291 14.4548 12.2142 13.2096 12.3362 11.968C12.4582 10.7264 13.0096 9.56527 13.8965 8.68248L13.9502 8.63395C14.9601 7.65185 16.3166 7.10143 17.7295 7.10034ZM17.7295 7.96906C18.6286 7.96906 19.5075 8.23406 20.255 8.73053C21.0026 9.22701 21.5853 9.93268 21.9293 10.7583C22.2734 11.5839 22.3634 12.4924 22.188 13.3688C22.0126 14.2453 21.5797 15.0504 20.9439 15.6823C20.3082 16.3142 19.4982 16.7445 18.6163 16.9189C17.7345 17.0932 16.8205 17.0037 15.9898 16.6617C15.1592 16.3198 14.4492 15.7406 13.9497 14.9976C13.4502 14.2546 13.1836 13.381 13.1836 12.4874C13.1836 11.289 13.6625 10.1398 14.515 9.29244C15.3676 8.4451 16.5238 7.96906 17.7295 7.96906Z" fill="#C72B20"/>
<path id="Vector_6" d="M39.3267 2.21305C39.3267 0.970635 40.5279 0 42.0416 0C43.5552 0 44.7564 0.970635 44.7564 2.21305V12.5066C44.7564 13.7248 43.5455 14.7197 42.0416 14.7197C40.5377 14.7197 39.3267 13.749 39.3267 12.5066V2.21305Z" fill="#1A1A1A"/>
<path id="Vector_7" d="M15.0154 2.21305C15.0154 0.970635 16.2312 0 17.7302 0C19.2292 0 20.4451 0.970635 20.4451 2.21305V12.5066C20.4451 13.7248 19.2341 14.7197 17.7302 14.7197C16.2263 14.7197 15.0154 13.749 15.0154 12.5066V2.21305Z" fill="#1A1A1A"/>
<path id="Vector_8" fill-rule="evenodd" clip-rule="evenodd" d="M10.7426 41.5527H17.5786C17.8104 41.5527 18.0327 41.6443 18.1966 41.8072C18.3605 41.9701 18.4526 42.1911 18.4526 42.4215V48.0997C18.4513 48.3297 18.3588 48.5499 18.1952 48.7125C18.0315 48.8752 17.81 48.9671 17.5786 48.9684H10.7426C10.5104 48.9684 10.2875 48.877 10.1229 48.7142C9.95817 48.5515 9.865 48.3305 9.86371 48.0997V42.4215C9.865 42.1906 9.95817 41.9697 10.1229 41.8069C10.2875 41.6441 10.5104 41.5527 10.7426 41.5527Z" fill="#1A1A1A"/>
<path id="Vector_9" fill-rule="evenodd" clip-rule="evenodd" d="M26.6506 41.5527H33.5158C33.7476 41.5527 33.9699 41.6443 34.1338 41.8072C34.2977 41.9701 34.3898 42.1911 34.3898 42.4215V48.0997C34.3885 48.3297 34.2961 48.5499 34.1324 48.7125C33.9688 48.8752 33.7472 48.9671 33.5158 48.9684H26.6506C26.4192 48.9671 26.1976 48.8752 26.034 48.7125C25.8703 48.5499 25.7778 48.3297 25.7766 48.0997V42.4215C25.7778 42.1914 25.8703 41.9712 26.034 41.8086C26.1976 41.6459 26.4192 41.554 26.6506 41.5527Z" fill="#1A1A1A"/>
<path id="Vector_10" fill-rule="evenodd" clip-rule="evenodd" d="M42.4172 41.5527H49.2824C49.5138 41.554 49.7354 41.6459 49.899 41.8086C50.0627 41.9712 50.1552 42.1914 50.1564 42.4215V48.0997C50.1552 48.3297 50.0627 48.5499 49.899 48.7125C49.7354 48.8752 49.5138 48.9671 49.2824 48.9684H42.4172C42.1858 48.9671 41.9642 48.8752 41.8006 48.7125C41.6369 48.5499 41.5444 48.3297 41.5432 48.0997V42.4215C41.5432 42.1911 41.6352 41.9701 41.7991 41.8072C41.9631 41.6443 42.1854 41.5527 42.4172 41.5527Z" fill="#1A1A1A"/>
<path id="Vector_11" fill-rule="evenodd" clip-rule="evenodd" d="M10.7426 27.3816H17.5786C17.8108 27.3829 18.0331 27.4755 18.1969 27.6392C18.3607 27.8029 18.4526 28.0243 18.4526 28.2552V33.9285C18.4513 34.1585 18.3588 34.3788 18.1952 34.5414C18.0315 34.704 17.81 34.796 17.5786 34.7972H10.7426C10.5104 34.7972 10.2875 34.7059 10.1229 34.5431C9.95817 34.3803 9.865 34.1594 9.86371 33.9285V28.2552C9.86499 28.0239 9.958 27.8024 10.1226 27.6389C10.2871 27.4753 10.5099 27.3829 10.7426 27.3816Z" fill="#1A1A1A"/>
<path id="Vector_12" fill-rule="evenodd" clip-rule="evenodd" d="M26.6506 27.3816H33.5158C33.7481 27.3829 33.9704 27.4755 34.1341 27.6392C34.2979 27.8029 34.3898 28.0243 34.3898 28.2552V33.9285C34.3885 34.1585 34.2961 34.3788 34.1324 34.5414C33.9688 34.704 33.7472 34.796 33.5158 34.7972H26.6506C26.4188 34.7972 26.1965 34.7057 26.0325 34.5428C25.8686 34.3799 25.7766 34.1589 25.7766 33.9285V28.2552C25.7765 28.0243 25.8685 27.8029 26.0322 27.6392C26.196 27.4755 26.4183 27.3829 26.6506 27.3816Z" fill="#1A1A1A"/>
<path id="Vector_13" fill-rule="evenodd" clip-rule="evenodd" d="M42.4172 27.3816H49.2824C49.5147 27.3829 49.737 27.4755 49.9007 27.6392C50.0645 27.8029 50.1564 28.0243 50.1564 28.2552V33.9285C50.1552 34.1585 50.0627 34.3788 49.899 34.5414C49.7354 34.704 49.5138 34.796 49.2824 34.7972H42.4172C42.1854 34.7972 41.9631 34.7057 41.7991 34.5428C41.6352 34.3799 41.5432 34.1589 41.5432 33.9285V28.2552C41.5431 28.0243 41.6351 27.8029 41.7988 27.6392C41.9626 27.4755 42.1849 27.3829 42.4172 27.3816Z" fill="#1A1A1A"/>
</g>
</svg>
