<svg width="252" height="50" viewBox="0 0 252 50" fill="none" xmlns="http://www.w3.org/2000/svg">
<rect x="1.5" y="1.5" width="249" height="47" rx="23.5" stroke="black" stroke-width="3"/>
<circle cx="227" cy="25" r="23.5" stroke="black" stroke-width="3"/>
<path fill-rule="evenodd" clip-rule="evenodd" d="M232.498 16.2511L241.749 25.5016C242.084 25.8363 242.084 26.379 241.749 26.7137L232.498 35.9648C232.163 36.2996 231.62 36.2996 231.286 35.9648C230.951 35.6301 230.951 35.0874 231.286 34.7526L239.074 26.9648H212V25.2505H239.074L231.286 17.4632C230.951 17.1285 230.951 16.5858 231.286 16.2511C231.62 15.9163 232.163 15.9163 232.498 16.2511Z" fill="black" stroke="black" stroke-width="2" stroke-linejoin="round"/>
<path d="M87.5582 31.216C86.5862 31.216 85.6802 31.06 84.8402 30.748C84.0122 30.424 83.2922 29.968 82.6802 29.38C82.0682 28.792 81.5882 28.102 81.2402 27.31C80.9042 26.518 80.7362 25.648 80.7362 24.7C80.7362 23.752 80.9042 22.882 81.2402 22.09C81.5882 21.298 82.0682 20.608 82.6802 20.02C83.3042 19.432 84.0302 18.982 84.8582 18.67C85.6862 18.346 86.5922 18.184 87.5762 18.184C88.6682 18.184 89.6522 18.376 90.5282 18.76C91.4162 19.132 92.1602 19.684 92.7602 20.416L90.8882 22.144C90.4562 21.652 89.9762 21.286 89.4482 21.046C88.9202 20.794 88.3442 20.668 87.7202 20.668C87.1322 20.668 86.5922 20.764 86.1002 20.956C85.6082 21.148 85.1822 21.424 84.8222 21.784C84.4622 22.144 84.1802 22.57 83.9762 23.062C83.7842 23.554 83.6882 24.1 83.6882 24.7C83.6882 25.3 83.7842 25.846 83.9762 26.338C84.1802 26.83 84.4622 27.256 84.8222 27.616C85.1822 27.976 85.6082 28.252 86.1002 28.444C86.5922 28.636 87.1322 28.732 87.7202 28.732C88.3442 28.732 88.9202 28.612 89.4482 28.372C89.9762 28.12 90.4562 27.742 90.8882 27.238L92.7602 28.966C92.1602 29.698 91.4162 30.256 90.5282 30.64C89.6522 31.024 88.6622 31.216 87.5582 31.216ZM100.919 31V29.11L100.739 28.696V25.312C100.739 24.712 100.553 24.244 100.181 23.908C99.8206 23.572 99.2626 23.404 98.5066 23.404C97.9906 23.404 97.4806 23.488 96.9766 23.656C96.4846 23.812 96.0646 24.028 95.7166 24.304L94.7086 22.342C95.2366 21.97 95.8726 21.682 96.6166 21.478C97.3606 21.274 98.1166 21.172 98.8846 21.172C100.361 21.172 101.507 21.52 102.323 22.216C103.139 22.912 103.547 23.998 103.547 25.474V31H100.919ZM97.9666 31.144C97.2106 31.144 96.5626 31.018 96.0226 30.766C95.4826 30.502 95.0686 30.148 94.7806 29.704C94.4926 29.26 94.3486 28.762 94.3486 28.21C94.3486 27.634 94.4866 27.13 94.7626 26.698C95.0506 26.266 95.5006 25.93 96.1126 25.69C96.7246 25.438 97.5226 25.312 98.5066 25.312H101.081V26.95H98.8126C98.1526 26.95 97.6966 27.058 97.4446 27.274C97.2046 27.49 97.0846 27.76 97.0846 28.084C97.0846 28.444 97.2226 28.732 97.4986 28.948C97.7866 29.152 98.1766 29.254 98.6686 29.254C99.1366 29.254 99.5566 29.146 99.9286 28.93C100.301 28.702 100.571 28.372 100.739 27.94L101.171 29.236C100.967 29.86 100.595 30.334 100.055 30.658C99.5146 30.982 98.8186 31.144 97.9666 31.144ZM106.588 31V17.644H109.396V31H106.588ZM112.502 31V17.644H115.31V31H112.502ZM129.81 31.216C128.022 31.216 126.624 30.718 125.616 29.722C124.608 28.726 124.104 27.304 124.104 25.456V18.4H127.02V25.348C127.02 26.548 127.266 27.412 127.758 27.94C128.25 28.468 128.94 28.732 129.828 28.732C130.716 28.732 131.406 28.468 131.898 27.94C132.39 27.412 132.636 26.548 132.636 25.348V18.4H135.516V25.456C135.516 27.304 135.012 28.726 134.004 29.722C132.996 30.718 131.598 31.216 129.81 31.216ZM141.957 31.144C141.129 31.144 140.331 31.048 139.563 30.856C138.807 30.652 138.207 30.4 137.763 30.1L138.699 28.084C139.143 28.36 139.665 28.588 140.265 28.768C140.877 28.936 141.477 29.02 142.065 29.02C142.713 29.02 143.169 28.942 143.433 28.786C143.709 28.63 143.847 28.414 143.847 28.138C143.847 27.91 143.739 27.742 143.523 27.634C143.319 27.514 143.043 27.424 142.695 27.364C142.347 27.304 141.963 27.244 141.543 27.184C141.135 27.124 140.721 27.046 140.301 26.95C139.881 26.842 139.497 26.686 139.149 26.482C138.801 26.278 138.519 26.002 138.303 25.654C138.099 25.306 137.997 24.856 137.997 24.304C137.997 23.692 138.171 23.152 138.519 22.684C138.879 22.216 139.395 21.85 140.067 21.586C140.739 21.31 141.543 21.172 142.479 21.172C143.139 21.172 143.811 21.244 144.495 21.388C145.179 21.532 145.749 21.742 146.205 22.018L145.269 24.016C144.801 23.74 144.327 23.554 143.847 23.458C143.379 23.35 142.923 23.296 142.479 23.296C141.855 23.296 141.399 23.38 141.111 23.548C140.823 23.716 140.679 23.932 140.679 24.196C140.679 24.436 140.781 24.616 140.985 24.736C141.201 24.856 141.483 24.952 141.831 25.024C142.179 25.096 142.557 25.162 142.965 25.222C143.385 25.27 143.805 25.348 144.225 25.456C144.645 25.564 145.023 25.72 145.359 25.924C145.707 26.116 145.989 26.386 146.205 26.734C146.421 27.07 146.529 27.514 146.529 28.066C146.529 28.666 146.349 29.2 145.989 29.668C145.629 30.124 145.107 30.484 144.423 30.748C143.751 31.012 142.929 31.144 141.957 31.144Z" fill="black"/>
</svg>
