<svg xmlns="http://www.w3.org/2000/svg" width="108.173" height="108.173" viewBox="0 0 108.173 108.173">
  <g id="Icons" transform="translate(2.5 2.5)">
    <g id="Group_30" data-name="Group 30" transform="translate(-1039.76 -1607.823)">
      <path id="Path_55" data-name="Path 55" d="M1091.534,1635.09l7.29,14.772a.536.536,0,0,0,.4.291l16.3,2.368a.532.532,0,0,1,.294.907l-11.8,11.5a.533.533,0,0,0-.153.47l2.785,16.236a.532.532,0,0,1-.772.561l-14.58-7.666a.535.535,0,0,0-.495,0l-14.581,7.666a.532.532,0,0,1-.772-.561l2.785-16.236a.528.528,0,0,0-.153-.47l-11.8-11.5a.532.532,0,0,1,.3-.907l16.3-2.368a.533.533,0,0,0,.4-.291l7.29-14.772A.532.532,0,0,1,1091.534,1635.09Z" fill="#ff8b7a"/>
      <circle id="Ellipse_7" data-name="Ellipse 7" cx="36.398" cy="36.398" r="36.398" transform="translate(1054.948 1623.011)" fill="none" stroke="#0068f7" stroke-width="5"/>
      <circle id="Ellipse_8" data-name="Ellipse 8" cx="51.586" cy="51.586" r="51.586" transform="translate(1039.76 1607.823)" fill="none" stroke="#71cec4" stroke-linecap="round" stroke-width="5" stroke-dasharray="0.15 7"/>
    </g>
  </g>
</svg>
