<svg width="67" height="67" viewBox="0 0 67 67" fill="none" xmlns="http://www.w3.org/2000/svg">
<g id="Group 615">
<g id="Image Placeholder">
<circle id="Image Placeholder_2" cx="33.5" cy="33.5" r="33.5" fill="#1EF396"/>
</g>
<path id="&#226;&#128;&#156;" d="M29.3477 18.2727L23.9661 40.8996L22.9877 35.6404C24.9446 35.6404 26.5346 36.2519 27.7577 37.475C28.9807 38.6165 29.5923 40.1657 29.5923 42.1227C29.5923 44.0796 28.9807 45.6696 27.7577 46.8926C26.5346 48.1157 25.0261 48.7273 23.2323 48.7273C21.2754 48.7273 19.6854 48.1157 18.4623 46.8926C17.3208 45.588 16.75 43.998 16.75 42.1227C16.75 41.3888 16.7908 40.7365 16.8723 40.1657C16.9538 39.595 17.1169 38.9019 17.3615 38.0865C17.6062 37.2711 17.9323 36.2927 18.34 35.1511L23.4769 18.2727H29.3477ZM50.1399 18.2727L44.7584 40.8996L43.7799 35.6404C45.7369 35.6404 47.3269 36.2519 48.5499 37.475C49.773 38.6165 50.3845 40.1657 50.3845 42.1227C50.3845 44.0796 49.773 45.6696 48.5499 46.8926C47.3269 48.1157 45.8184 48.7273 44.0246 48.7273C42.0676 48.7273 40.4776 48.1157 39.2546 46.8926C38.113 45.588 37.5423 43.998 37.5423 42.1227C37.5423 41.3888 37.583 40.7365 37.6646 40.1657C37.7461 39.595 37.9092 38.9019 38.1538 38.0865C38.3984 37.2711 38.7246 36.2927 39.1323 35.1511L44.2692 18.2727H50.1399Z" fill="white"/>
</g>
</svg>
