<svg width="200" height="50" viewBox="0 0 200 50" fill="none" xmlns="http://www.w3.org/2000/svg">
<rect x="1" y="1" width="198" height="48" rx="24" fill="#1EF396" stroke="#1EF396" stroke-width="2"/>
<circle cx="175" cy="25" r="24" fill="#00C269" stroke="#00C269" stroke-width="2"/>
<path fill-rule="evenodd" clip-rule="evenodd" d="M180.498 16.251L189.749 25.5015C190.084 25.8363 190.084 26.379 189.749 26.7137L180.498 35.9648C180.163 36.2996 179.62 36.2996 179.286 35.9648C178.951 35.6301 178.951 35.0874 179.286 34.7526L187.074 26.9648H160V25.2505H187.074L179.286 17.4632C178.951 17.1285 178.951 16.5858 179.286 16.251C179.62 15.9163 180.163 15.9163 180.498 16.251Z" fill="black"/>
<path d="M59.2248 31.216C58.2168 31.216 57.2508 31.084 56.3268 30.82C55.4028 30.544 54.6588 30.19 54.0948 29.758L55.0848 27.562C55.6248 27.946 56.2608 28.264 56.9928 28.516C57.7368 28.756 58.4868 28.876 59.2428 28.876C59.8188 28.876 60.2808 28.822 60.6288 28.714C60.9888 28.594 61.2528 28.432 61.4208 28.228C61.5888 28.024 61.6728 27.79 61.6728 27.526C61.6728 27.19 61.5408 26.926 61.2768 26.734C61.0128 26.53 60.6648 26.368 60.2328 26.248C59.8008 26.116 59.3208 25.996 58.7928 25.888C58.2768 25.768 57.7548 25.624 57.2268 25.456C56.7108 25.288 56.2368 25.072 55.8048 24.808C55.3728 24.544 55.0188 24.196 54.7428 23.764C54.4788 23.332 54.3468 22.78 54.3468 22.108C54.3468 21.388 54.5388 20.734 54.9228 20.146C55.3188 19.546 55.9068 19.072 56.6868 18.724C57.4788 18.364 58.4688 18.184 59.6568 18.184C60.4488 18.184 61.2288 18.28 61.9968 18.472C62.7648 18.652 63.4428 18.928 64.0308 19.3L63.1308 21.514C62.5428 21.178 61.9548 20.932 61.3668 20.776C60.7788 20.608 60.2028 20.524 59.6388 20.524C59.0748 20.524 58.6128 20.59 58.2528 20.722C57.8928 20.854 57.6348 21.028 57.4788 21.244C57.3228 21.448 57.2448 21.688 57.2448 21.964C57.2448 22.288 57.3768 22.552 57.6408 22.756C57.9048 22.948 58.2528 23.104 58.6848 23.224C59.1168 23.344 59.5908 23.464 60.1068 23.584C60.6348 23.704 61.1568 23.842 61.6728 23.998C62.2008 24.154 62.6808 24.364 63.1128 24.628C63.5448 24.892 63.8928 25.24 64.1568 25.672C64.4328 26.104 64.5708 26.65 64.5708 27.31C64.5708 28.018 64.3728 28.666 63.9768 29.254C63.5808 29.842 62.9868 30.316 62.1948 30.676C61.4148 31.036 60.4248 31.216 59.2248 31.216ZM71.6713 31.144C70.5673 31.144 69.5953 30.928 68.7553 30.496C67.9273 30.064 67.2853 29.476 66.8293 28.732C66.3733 27.976 66.1453 27.118 66.1453 26.158C66.1453 25.186 66.3673 24.328 66.8113 23.584C67.2673 22.828 67.8853 22.24 68.6653 21.82C69.4453 21.388 70.3273 21.172 71.3113 21.172C72.2593 21.172 73.1113 21.376 73.8673 21.784C74.6353 22.18 75.2413 22.756 75.6853 23.512C76.1293 24.256 76.3513 25.15 76.3513 26.194C76.3513 26.302 76.3453 26.428 76.3333 26.572C76.3213 26.704 76.3093 26.83 76.2973 26.95H68.4313V25.312H74.8213L73.7413 25.798C73.7413 25.294 73.6393 24.856 73.4353 24.484C73.2313 24.112 72.9493 23.824 72.5893 23.62C72.2293 23.404 71.8093 23.296 71.3293 23.296C70.8493 23.296 70.4233 23.404 70.0513 23.62C69.6913 23.824 69.4093 24.118 69.2053 24.502C69.0013 24.874 68.8993 25.318 68.8993 25.834V26.266C68.8993 26.794 69.0133 27.262 69.2413 27.67C69.4813 28.066 69.8113 28.372 70.2313 28.588C70.6633 28.792 71.1673 28.894 71.7433 28.894C72.2593 28.894 72.7093 28.816 73.0933 28.66C73.4893 28.504 73.8493 28.27 74.1733 27.958L75.6673 29.578C75.2233 30.082 74.6653 30.472 73.9933 30.748C73.3213 31.012 72.5473 31.144 71.6713 31.144ZM84.3971 31V29.11L84.2171 28.696V25.312C84.2171 24.712 84.0311 24.244 83.6591 23.908C83.2991 23.572 82.7411 23.404 81.9851 23.404C81.4691 23.404 80.9591 23.488 80.4551 23.656C79.9631 23.812 79.5431 24.028 79.1951 24.304L78.1871 22.342C78.7151 21.97 79.3511 21.682 80.0951 21.478C80.8391 21.274 81.5951 21.172 82.3631 21.172C83.8391 21.172 84.9851 21.52 85.8011 22.216C86.6171 22.912 87.0251 23.998 87.0251 25.474V31H84.3971ZM81.4451 31.144C80.6891 31.144 80.0411 31.018 79.5011 30.766C78.9611 30.502 78.5471 30.148 78.2591 29.704C77.9711 29.26 77.8271 28.762 77.8271 28.21C77.8271 27.634 77.9651 27.13 78.2411 26.698C78.5291 26.266 78.9791 25.93 79.5911 25.69C80.2031 25.438 81.0011 25.312 81.9851 25.312H84.5591V26.95H82.2911C81.6311 26.95 81.1751 27.058 80.9231 27.274C80.6831 27.49 80.5631 27.76 80.5631 28.084C80.5631 28.444 80.7011 28.732 80.9771 28.948C81.2651 29.152 81.6551 29.254 82.1471 29.254C82.6151 29.254 83.0351 29.146 83.4071 28.93C83.7791 28.702 84.0491 28.372 84.2171 27.94L84.6491 29.236C84.4451 29.86 84.0731 30.334 83.5331 30.658C82.9931 30.982 82.2971 31.144 81.4451 31.144ZM90.0665 31V21.316H92.7485V24.052L92.3705 23.26C92.6585 22.576 93.1205 22.06 93.7565 21.712C94.3925 21.352 95.1665 21.172 96.0785 21.172V23.764C95.9585 23.752 95.8505 23.746 95.7545 23.746C95.6585 23.734 95.5565 23.728 95.4485 23.728C94.6805 23.728 94.0565 23.95 93.5765 24.394C93.1085 24.826 92.8745 25.504 92.8745 26.428V31H90.0665ZM102.858 31.144C101.814 31.144 100.884 30.934 100.068 30.514C99.2518 30.082 98.6098 29.488 98.1418 28.732C97.6858 27.976 97.4578 27.118 97.4578 26.158C97.4578 25.186 97.6858 24.328 98.1418 23.584C98.6098 22.828 99.2518 22.24 100.068 21.82C100.884 21.388 101.814 21.172 102.858 21.172C103.878 21.172 104.766 21.388 105.522 21.82C106.278 22.24 106.836 22.846 107.196 23.638L105.018 24.808C104.766 24.352 104.448 24.016 104.064 23.8C103.692 23.584 103.284 23.476 102.84 23.476C102.36 23.476 101.928 23.584 101.544 23.8C101.16 24.016 100.854 24.322 100.626 24.718C100.41 25.114 100.302 25.594 100.302 26.158C100.302 26.722 100.41 27.202 100.626 27.598C100.854 27.994 101.16 28.3 101.544 28.516C101.928 28.732 102.36 28.84 102.84 28.84C103.284 28.84 103.692 28.738 104.064 28.534C104.448 28.318 104.766 27.976 105.018 27.508L107.196 28.696C106.836 29.476 106.278 30.082 105.522 30.514C104.766 30.934 103.878 31.144 102.858 31.144ZM115.146 21.172C115.914 21.172 116.598 21.328 117.198 21.64C117.81 21.94 118.29 22.408 118.638 23.044C118.986 23.668 119.16 24.472 119.16 25.456V31H116.352V25.888C116.352 25.108 116.178 24.532 115.83 24.16C115.494 23.788 115.014 23.602 114.39 23.602C113.946 23.602 113.544 23.698 113.184 23.89C112.836 24.07 112.56 24.352 112.356 24.736C112.164 25.12 112.068 25.612 112.068 26.212V31H109.26V17.644H112.068V23.998L111.438 23.188C111.786 22.54 112.284 22.042 112.932 21.694C113.58 21.346 114.318 21.172 115.146 21.172Z" fill="black"/>
</svg>
