<svg xmlns="http://www.w3.org/2000/svg" width="86.563" height="109.535" viewBox="0 0 86.563 109.535">
  <g id="Component_13_1" data-name="Component 13 – 1" transform="translate(2 2)">
    <line id="Line_14" data-name="Line 14" y1="95.341" transform="translate(41.258 9.694)" fill="none" stroke="#71cec4" stroke-linecap="round" stroke-width="5" stroke-dasharray="0.15 7"/>
    <path id="Path_37" data-name="Path 37" d="M1133.057,1320.468h-19.166a14.593,14.593,0,0,0-14.593,14.594v8.3a.545.545,0,0,0,.546.546h19.166a14.592,14.592,0,0,0,14.593-14.593v-8.3A.545.545,0,0,0,1133.057,1320.468Z" transform="translate(-1051.04 -1320.468)" fill="none" stroke="#0068f7" stroke-linecap="round" stroke-width="4"/>
    <path id="Path_38" data-name="Path 38" d="M1133.057,1354.4h-19.166a14.593,14.593,0,0,0-14.593,14.594v8.3a.546.546,0,0,0,.546.546h19.166a14.593,14.593,0,0,0,14.593-14.594v-8.3A.546.546,0,0,0,1133.057,1354.4Z" transform="translate(-1051.04 -1320.468)" fill="none" stroke="#0068f7" stroke-linecap="round" stroke-width="4"/>
    <path id="Path_39" data-name="Path 39" d="M1133.057,1388.327h-19.166a14.592,14.592,0,0,0-14.593,14.593v8.3a.545.545,0,0,0,.546.546h19.166a14.593,14.593,0,0,0,14.593-14.594v-8.295A.545.545,0,0,0,1133.057,1388.327Z" transform="translate(-1051.04 -1320.468)" fill="none" stroke="#0068f7" stroke-linecap="round" stroke-width="4"/>
    <path id="Path_40" data-name="Path 40" d="M1051.586,1320.468h19.167a14.593,14.593,0,0,1,14.593,14.594v8.3a.545.545,0,0,1-.546.546h-19.166a14.593,14.593,0,0,1-14.594-14.593v-8.3A.546.546,0,0,1,1051.586,1320.468Z" transform="translate(-1051.04 -1320.468)" fill="none" stroke="#ff8b7a" stroke-width="4"/>
    <path id="Path_41" data-name="Path 41" d="M1051.586,1320.468h19.167a14.593,14.593,0,0,1,14.593,14.594v8.3a.545.545,0,0,1-.546.546h-19.166a14.593,14.593,0,0,1-14.594-14.593v-8.3A.546.546,0,0,1,1051.586,1320.468Z" transform="translate(-1051.04 -1320.468)" fill="#ff8b7a"/>
    <path id="Path_42" data-name="Path 42" d="M1051.586,1354.4h19.167a14.593,14.593,0,0,1,14.593,14.594v8.3a.546.546,0,0,1-.546.546h-19.166a14.594,14.594,0,0,1-14.594-14.594v-8.3A.547.547,0,0,1,1051.586,1354.4Z" transform="translate(-1051.04 -1320.468)" fill="none" stroke="#0068f7" stroke-linecap="round" stroke-width="4"/>
    <path id="Path_43" data-name="Path 43" d="M1051.586,1388.327h19.167a14.592,14.592,0,0,1,14.593,14.593v8.3a.545.545,0,0,1-.546.546h-19.166a14.594,14.594,0,0,1-14.594-14.594v-8.295A.546.546,0,0,1,1051.586,1388.327Z" transform="translate(-1051.04 -1320.468)" fill="none" stroke="#0068f7" stroke-linecap="round" stroke-width="4"/>
  </g>
</svg>
