<svg xmlns="http://www.w3.org/2000/svg" width="114.192" height="103.258" viewBox="0 0 114.192 103.258">
  <g id="Component_14_1" data-name="Component 14 – 1" transform="translate(3.133 2.5)">
    <path id="Path_46" data-name="Path 46" d="M250.05,1649.268a49.109,49.109,0,0,1,96.347-.751" transform="translate(-244.74 -1609.315)" fill="none" stroke="#71cec4" stroke-linecap="round" stroke-width="5" stroke-dasharray="0.15 7"/>
    <path id="Path_47" data-name="Path 47" d="M352.666,1639.618l-4.432,14.147a.478.478,0,0,1-.774.215l-11.081-9.849" transform="translate(-244.74 -1609.315)" fill="none" stroke="#71cec4" stroke-linecap="round" stroke-width="5" stroke-dasharray="0.15 7"/>
    <path id="Path_48" data-name="Path 48" d="M347.357,1667.62a49.109,49.109,0,0,1-96.348.75" transform="translate(-244.74 -1609.315)" fill="none" stroke="#0068f7" stroke-linecap="round" stroke-width="5"/>
    <path id="Path_49" data-name="Path 49" d="M244.74,1677.27l4.432-14.148a.479.479,0,0,1,.775-.214l11.08,9.849" transform="translate(-244.74 -1609.315)" fill="none" stroke="#0068f7" stroke-linecap="round" stroke-width="5"/>
    <path id="Path_50" data-name="Path 50" d="M298.292,1682.71l20.928-20.928a12.437,12.437,0,0,0,0-17.589h0a12.438,12.438,0,0,0-17.589,0l-3.343,3.345a.148.148,0,0,1-.208,0l-3.343-3.345a12.438,12.438,0,0,0-17.589,0h0a12.437,12.437,0,0,0,0,17.589l20.928,20.928A.154.154,0,0,0,298.292,1682.71Z" transform="translate(-244.74 -1609.315)" fill="#ff8b7a"/>
  </g>
</svg>
