<svg width="70" height="50" viewBox="0 0 70 50" fill="none" xmlns="http://www.w3.org/2000/svg">
<g clip-path="url(#clip0_3452_2004)">
<path fill-rule="evenodd" clip-rule="evenodd" d="M0 43.4521C0 47.0684 2.93154 49.9999 6.54777 49.9999H24.9997C28.6159 49.9999 31.5475 47.0684 31.5475 43.4521C31.5475 39.8359 28.6159 36.9044 24.9997 36.9044H6.54777C2.93154 36.9044 0 39.8359 0 43.4521Z" fill="#1EF396"/>
<path fill-rule="evenodd" clip-rule="evenodd" d="M19.5884 25C19.5884 28.6163 22.5199 31.5478 26.1362 31.5478H44.5881C48.2043 31.5478 51.1359 28.6163 51.1359 25C51.1359 21.3838 48.2043 18.4523 44.5881 18.4523H26.1362C22.5199 18.4523 19.5884 21.3838 19.5884 25Z" fill="#1EF396"/>
<path fill-rule="evenodd" clip-rule="evenodd" d="M26.1362 50C29.7524 50 32.6839 47.0685 32.6839 43.4522V25.0003C32.6839 21.3841 29.7524 18.4525 26.1362 18.4525C22.5199 18.4525 19.5884 21.3841 19.5884 25.0003V43.4522C19.5884 47.0685 22.5199 50 26.1362 50Z" fill="#1EF396"/>
<path fill-rule="evenodd" clip-rule="evenodd" d="M44.5883 31.5478C48.2045 31.5478 51.1361 28.6163 51.1361 25V6.54808C51.1361 2.93185 48.2045 0.000310898 44.5883 0.000310898C40.9721 0.000310898 38.0405 2.93185 38.0405 6.54808V25C38.0405 28.6163 40.9721 31.5478 44.5883 31.5478Z" fill="#1EF396"/>
<path fill-rule="evenodd" clip-rule="evenodd" d="M38.0405 6.54796C38.0405 10.1642 40.9721 13.0957 44.5883 13.0957H63.0402C66.6565 13.0957 69.588 10.1642 69.588 6.54796C69.588 2.93173 66.6565 0.000188828 63.0402 0.000188828H44.5883C40.9721 0.000188828 38.0405 2.93173 38.0405 6.54796Z" fill="#1EF396"/>
<mask id="mask0_3452_2004" style="mask-type:luminance" maskUnits="userSpaceOnUse" x="-337" y="-348" width="1128" height="635">
<path d="M-336.306 286.386H790.243V-347.298H-336.306V286.386Z" fill="white"/>
</mask>
<g mask="url(#mask0_3452_2004)">
<path d="M63.0403 4.76837e-06C66.6564 4.76837e-06 69.5877 2.93138 69.5877 6.54807C69.5877 10.1642 66.6564 13.0956 63.0403 13.0956C59.4241 13.0956 56.4922 10.1642 56.4922 6.54807C56.4922 2.93138 59.4241 4.76837e-06 63.0403 4.76837e-06Z" fill="#00BF72"/>
</g>
</g>
<defs>
<clipPath id="clip0_3452_2004">
<rect width="69.5879" height="50" fill="white"/>
</clipPath>
</defs>
</svg>
