<svg width="393" height="58" viewBox="0 0 393 58" fill="none" xmlns="http://www.w3.org/2000/svg">
<rect x="1" y="1.5708" width="391" height="55.3195" rx="27.6597" fill="#FD7961" stroke="#FD7961" stroke-width="2"/>
<path d="M391.94 29.2305C391.94 44.5066 379.556 56.8903 364.28 56.8903C349.004 56.8903 336.62 44.5066 336.62 29.2305C336.62 13.9545 349.004 1.5708 364.28 1.5708C379.556 1.5708 391.94 13.9545 391.94 29.2305Z" fill="#EA543A" stroke="#EA543A" stroke-width="2"/>
<path fill-rule="evenodd" clip-rule="evenodd" d="M370.583 19.2009L381.188 29.8056C381.572 30.1893 381.572 30.8115 381.188 31.1952L370.583 41.8006C370.199 42.1843 369.577 42.1843 369.193 41.8006C368.809 41.4168 368.809 40.7947 369.193 40.4109L378.121 31.483H347.084V29.5178H378.121L369.193 20.5905C368.809 20.2068 368.809 19.5846 369.193 19.2009C369.577 18.8171 370.199 18.8171 370.583 19.2009Z" fill="black"/>
</svg>
