<svg width="252" height="50" viewBox="0 0 252 50" fill="none" xmlns="http://www.w3.org/2000/svg">
<rect x="1" y="1" width="250" height="48" rx="24" fill="#1EF396" stroke="#1EF396" stroke-width="2"/>
<circle cx="227" cy="25" r="24" fill="#00BF72" stroke="#00BF72" stroke-width="2"/>
<path fill-rule="evenodd" clip-rule="evenodd" d="M232.498 16.251L241.749 25.5015C242.084 25.8363 242.084 26.379 241.749 26.7137L232.498 35.9648C232.163 36.2996 231.62 36.2996 231.286 35.9648C230.951 35.6301 230.951 35.0874 231.286 34.7526L239.074 26.9648H212V25.2505H239.074L231.286 17.4632C230.951 17.1285 230.951 16.5858 231.286 16.251C231.62 15.9163 232.163 15.9163 232.498 16.251Z" fill="black"/>
<path d="M91.6659 31V18.4H94.0779L101.512 27.472H100.342V18.4H103.222V31H100.828L93.3759 21.928H94.5459V31H91.6659ZM111.311 31.144C110.207 31.144 109.235 30.928 108.395 30.496C107.567 30.064 106.925 29.476 106.469 28.732C106.013 27.976 105.785 27.118 105.785 26.158C105.785 25.186 106.007 24.328 106.451 23.584C106.907 22.828 107.525 22.24 108.305 21.82C109.085 21.388 109.967 21.172 110.951 21.172C111.899 21.172 112.751 21.376 113.507 21.784C114.275 22.18 114.881 22.756 115.325 23.512C115.769 24.256 115.991 25.15 115.991 26.194C115.991 26.302 115.985 26.428 115.973 26.572C115.961 26.704 115.949 26.83 115.937 26.95H108.071V25.312H114.461L113.381 25.798C113.381 25.294 113.279 24.856 113.075 24.484C112.871 24.112 112.589 23.824 112.229 23.62C111.869 23.404 111.449 23.296 110.969 23.296C110.489 23.296 110.063 23.404 109.691 23.62C109.331 23.824 109.049 24.118 108.845 24.502C108.641 24.874 108.539 25.318 108.539 25.834V26.266C108.539 26.794 108.653 27.262 108.881 27.67C109.121 28.066 109.451 28.372 109.871 28.588C110.303 28.792 110.807 28.894 111.383 28.894C111.899 28.894 112.349 28.816 112.733 28.66C113.129 28.504 113.489 28.27 113.813 27.958L115.307 29.578C114.863 30.082 114.305 30.472 113.633 30.748C112.961 31.012 112.187 31.144 111.311 31.144ZM116.873 31L121.211 25.312L121.157 26.86L116.999 21.316H120.149L122.777 24.934L121.589 24.97L124.307 21.316H127.295L123.119 26.806V25.294L127.439 31H124.253L121.499 27.148L122.669 27.31L119.933 31H116.873ZM133.262 31.144C132.122 31.144 131.234 30.856 130.598 30.28C129.962 29.692 129.644 28.822 129.644 27.67V19.174H132.452V27.634C132.452 28.042 132.56 28.36 132.776 28.588C132.992 28.804 133.286 28.912 133.658 28.912C134.102 28.912 134.48 28.792 134.792 28.552L135.548 30.532C135.26 30.736 134.912 30.892 134.504 31C134.108 31.096 133.694 31.144 133.262 31.144ZM128.15 23.692V21.532H134.864V23.692H128.15Z" fill="black"/>
</svg>
