<svg xmlns="http://www.w3.org/2000/svg" width="110.357" height="111.756" viewBox="0 0 110.357 111.756">
  <g id="Component_12_1" data-name="Component 12 – 1" transform="translate(2.176 1.51)">
    <line id="Line_15" data-name="Line 15" y1="22.52" x2="0.423" transform="translate(79.044 16.028)" fill="none" stroke="#71cec4" stroke-linecap="round" stroke-width="4.353" stroke-dasharray="0.163 7.617"/>
    <path id="Path_51" data-name="Path 51" d="M659.261,1402.729l-14.45-14.454a7.673,7.673,0,0,1,0-10.861,7.542,7.542,0,0,1,1.121-.925,7.669,7.669,0,0,1,9.739.925l17.906,17.906a.54.54,0,0,1,.159.382v30.282a.519.519,0,0,1-.519.519H646.451a.519.519,0,0,1-.519-.519v-10.612a.544.544,0,0,0-.165-.39l-15.014-14.6a.618.618,0,0,1-.186-.442v-47.31a7.9,7.9,0,0,1,7.448-8,7.682,7.682,0,0,1,7.917,7.68v24.179" transform="translate(-630.567 -1318.433)" fill="none" stroke="#0068f7" stroke-linecap="round" stroke-width="4.353"/>
    <path id="Path_52" data-name="Path 52" d="M707.877,1402.729l14.449-14.454a7.671,7.671,0,0,0,0-10.861,7.542,7.542,0,0,0-1.121-.925,7.669,7.669,0,0,0-9.739.925L693.56,1395.32a.543.543,0,0,0-.158.382v30.282a.519.519,0,0,0,.519.519h26.765a.519.519,0,0,0,.519-.519v-10.612a.544.544,0,0,1,.165-.39l15.014-14.6a.619.619,0,0,0,.187-.442v-47.31a7.9,7.9,0,0,0-7.449-8,7.682,7.682,0,0,0-7.917,7.68v24.179" transform="translate(-630.567 -1318.433)" fill="none" stroke="#0068f7" stroke-linecap="round" stroke-width="4.353"/>
    <path id="Path_53" data-name="Path 53" d="M700.65,1328.7a2.838,2.838,0,0,0-2.6,2.895v7.177a.182.182,0,0,1-.187.182l-33.369-.927a.181.181,0,0,1-.177-.182v-7.338a2.839,2.839,0,0,0-2.6-2.9,2.719,2.719,0,0,0-2.843,2.717v32.947a.027.027,0,0,0,.02.026s8.247,2.871,22.287,2.871a89.645,89.645,0,0,0,22.288-2.871.027.027,0,0,0,.02-.026v-31.858A2.72,2.72,0,0,0,700.65,1328.7Z" transform="translate(-630.567 -1318.433)" fill="#ff8b7a"/>
    <path id="Path_54" data-name="Path 54" d="M710.806,1329.693l-28.481-11.041a3.221,3.221,0,0,0-2.325,0l-28.679,11.042a3.223,3.223,0,0,0-.03,6l28.678,11.388.007,0a3.209,3.209,0,0,0,2.379-.005l28.48-11.387a3.223,3.223,0,0,0-.029-6Z" transform="translate(-630.567 -1318.433)" fill="#ff8b7a" stroke="#fff" stroke-width="3"/>
  </g>
</svg>
