<svg width="44" height="61" viewBox="0 0 44 61" fill="none" xmlns="http://www.w3.org/2000/svg">
<path d="M43.0542 53.0481V45.8888V43.7872C43.0542 31.8982 33.4161 22.2601 21.5271 22.2601C9.63809 22.2601 0 31.8982 0 43.7872V45.8888V53.0481C0 57.4394 3.56001 61 7.95127 61H35.103C39.4942 61 43.0542 57.4394 43.0542 53.0481Z" fill="#1EF396"/>
<path d="M21.5271 29.5044C29.6747 29.5044 36.2793 22.8998 36.2793 14.7522C36.2793 6.60514 29.6747 5.72205e-06 21.5271 5.72205e-06C13.3795 5.72205e-06 6.7749 6.60514 6.7749 14.7522C6.7749 22.8998 13.3795 29.5044 21.5271 29.5044Z" fill="#1EF396"/>
<path fill-rule="evenodd" clip-rule="evenodd" d="M32.1055 25.0344C29.4251 27.7916 25.676 29.5045 21.5268 29.5045C17.3776 29.5045 13.6286 27.7917 10.9482 25.0345C14.0725 23.2683 17.682 22.2602 21.527 22.2602C25.3718 22.2602 28.9813 23.2682 32.1055 25.0344Z" fill="#00BF72"/>
</svg>
