<svg width="336" height="58" viewBox="0 0 336 58" fill="none" xmlns="http://www.w3.org/2000/svg">
<rect x="1" y="1" width="334" height="55" rx="27.5" fill="#B573FF" stroke="#B573FF" stroke-width="2"/>
<path d="M334.94 28.6597C334.94 43.9358 322.556 56.3195 307.28 56.3195C292.004 56.3195 279.62 43.9358 279.62 28.6597C279.62 13.3837 292.004 1 307.28 1C322.556 1 334.94 13.3837 334.94 28.6597Z" fill="#A945EB" stroke="#A945EB" stroke-width="2"/>
<path fill-rule="evenodd" clip-rule="evenodd" d="M313.583 18.6301L324.188 29.2348C324.572 29.6185 324.572 30.2407 324.188 30.6244L313.583 41.2297C313.199 41.6135 312.577 41.6135 312.193 41.2297C311.809 40.846 311.809 40.2239 312.193 39.8401L321.121 30.9122H290.084V28.947H321.121L312.193 20.0197C311.809 19.636 311.809 19.0138 312.193 18.6301C312.577 18.2463 313.199 18.2463 313.583 18.6301Z" fill="black"/>
</svg>
