<svg width="252" height="50" viewBox="0 0 252 50" fill="none" xmlns="http://www.w3.org/2000/svg">
<rect x="1" y="1" width="250" height="48" rx="24" fill="#1EF396" stroke="#1EF396" stroke-width="2"/>
<circle cx="227" cy="25" r="24" fill="#00BF72" stroke="#00BF72" stroke-width="2"/>
<path fill-rule="evenodd" clip-rule="evenodd" d="M232.498 16.251L241.749 25.5015C242.084 25.8363 242.084 26.379 241.749 26.7137L232.498 35.9648C232.163 36.2996 231.62 36.2996 231.286 35.9648C230.951 35.6301 230.951 35.0874 231.286 34.7526L239.074 26.9648H212V25.2505H239.074L231.286 17.4632C230.951 17.1285 230.951 16.5858 231.286 16.251C231.62 15.9163 232.163 15.9163 232.498 16.251Z" fill="black"/>
<path d="M83.6945 31.216C82.6865 31.216 81.7205 31.084 80.7965 30.82C79.8725 30.544 79.1285 30.19 78.5645 29.758L79.5545 27.562C80.0945 27.946 80.7305 28.264 81.4625 28.516C82.2065 28.756 82.9565 28.876 83.7125 28.876C84.2885 28.876 84.7505 28.822 85.0985 28.714C85.4585 28.594 85.7225 28.432 85.8905 28.228C86.0585 28.024 86.1425 27.79 86.1425 27.526C86.1425 27.19 86.0105 26.926 85.7465 26.734C85.4825 26.53 85.1345 26.368 84.7025 26.248C84.2705 26.116 83.7905 25.996 83.2625 25.888C82.7465 25.768 82.2245 25.624 81.6965 25.456C81.1805 25.288 80.7065 25.072 80.2745 24.808C79.8425 24.544 79.4885 24.196 79.2125 23.764C78.9485 23.332 78.8165 22.78 78.8165 22.108C78.8165 21.388 79.0085 20.734 79.3925 20.146C79.7885 19.546 80.3765 19.072 81.1565 18.724C81.9485 18.364 82.9385 18.184 84.1265 18.184C84.9185 18.184 85.6985 18.28 86.4665 18.472C87.2345 18.652 87.9125 18.928 88.5005 19.3L87.6005 21.514C87.0125 21.178 86.4245 20.932 85.8365 20.776C85.2485 20.608 84.6725 20.524 84.1085 20.524C83.5445 20.524 83.0825 20.59 82.7225 20.722C82.3625 20.854 82.1045 21.028 81.9485 21.244C81.7925 21.448 81.7145 21.688 81.7145 21.964C81.7145 22.288 81.8465 22.552 82.1105 22.756C82.3745 22.948 82.7225 23.104 83.1545 23.224C83.5865 23.344 84.0605 23.464 84.5765 23.584C85.1045 23.704 85.6265 23.842 86.1425 23.998C86.6705 24.154 87.1505 24.364 87.5825 24.628C88.0145 24.892 88.3625 25.24 88.6265 25.672C88.9025 26.104 89.0405 26.65 89.0405 27.31C89.0405 28.018 88.8425 28.666 88.4465 29.254C88.0505 29.842 87.4565 30.316 86.6645 30.676C85.8845 31.036 84.8945 31.216 83.6945 31.216ZM95.4211 31.144C94.6171 31.144 93.8971 30.988 93.2611 30.676C92.6371 30.364 92.1511 29.89 91.8031 29.254C91.4551 28.606 91.2811 27.784 91.2811 26.788V21.316H94.0891V26.374C94.0891 27.178 94.2571 27.772 94.5931 28.156C94.9411 28.528 95.4271 28.714 96.0511 28.714C96.4831 28.714 96.8671 28.624 97.2031 28.444C97.5391 28.252 97.8031 27.964 97.9951 27.58C98.1871 27.184 98.2831 26.692 98.2831 26.104V21.316H101.091V31H98.4271V28.336L98.9131 29.11C98.5891 29.782 98.1091 30.292 97.4731 30.64C96.8491 30.976 96.1651 31.144 95.4211 31.144ZM109.916 31.144C109.064 31.144 108.332 30.964 107.72 30.604C107.108 30.244 106.64 29.698 106.316 28.966C105.992 28.222 105.83 27.286 105.83 26.158C105.83 25.018 105.998 24.082 106.334 23.35C106.682 22.618 107.162 22.072 107.774 21.712C108.386 21.352 109.1 21.172 109.916 21.172C110.828 21.172 111.644 21.376 112.364 21.784C113.096 22.192 113.672 22.768 114.092 23.512C114.524 24.256 114.74 25.138 114.74 26.158C114.74 27.166 114.524 28.042 114.092 28.786C113.672 29.53 113.096 30.112 112.364 30.532C111.644 30.94 110.828 31.144 109.916 31.144ZM104.192 31V17.644H107V23.278L106.82 26.14L106.874 29.02V31H104.192ZM109.43 28.84C109.898 28.84 110.312 28.732 110.672 28.516C111.044 28.3 111.338 27.994 111.554 27.598C111.782 27.19 111.896 26.71 111.896 26.158C111.896 25.594 111.782 25.114 111.554 24.718C111.338 24.322 111.044 24.016 110.672 23.8C110.312 23.584 109.898 23.476 109.43 23.476C108.962 23.476 108.542 23.584 108.17 23.8C107.798 24.016 107.504 24.322 107.288 24.718C107.072 25.114 106.964 25.594 106.964 26.158C106.964 26.71 107.072 27.19 107.288 27.598C107.504 27.994 107.798 28.3 108.17 28.516C108.542 28.732 108.962 28.84 109.43 28.84ZM129.522 21.172C130.29 21.172 130.968 21.328 131.556 21.64C132.156 21.94 132.624 22.408 132.96 23.044C133.308 23.668 133.482 24.472 133.482 25.456V31H130.674V25.888C130.674 25.108 130.512 24.532 130.188 24.16C129.864 23.788 129.408 23.602 128.82 23.602C128.412 23.602 128.046 23.698 127.722 23.89C127.398 24.07 127.146 24.346 126.966 24.718C126.786 25.09 126.696 25.564 126.696 26.14V31H123.888V25.888C123.888 25.108 123.726 24.532 123.402 24.16C123.09 23.788 122.64 23.602 122.052 23.602C121.644 23.602 121.278 23.698 120.954 23.89C120.63 24.07 120.378 24.346 120.198 24.718C120.018 25.09 119.928 25.564 119.928 26.14V31H117.12V21.316H119.802V23.962L119.298 23.188C119.634 22.528 120.108 22.03 120.72 21.694C121.344 21.346 122.052 21.172 122.844 21.172C123.732 21.172 124.506 21.4 125.166 21.856C125.838 22.3 126.282 22.984 126.498 23.908L125.508 23.638C125.832 22.882 126.348 22.282 127.056 21.838C127.776 21.394 128.598 21.172 129.522 21.172ZM136.499 31V21.316H139.307V31H136.499ZM137.903 19.966C137.387 19.966 136.967 19.816 136.643 19.516C136.319 19.216 136.157 18.844 136.157 18.4C136.157 17.956 136.319 17.584 136.643 17.284C136.967 16.984 137.387 16.834 137.903 16.834C138.419 16.834 138.839 16.978 139.163 17.266C139.487 17.542 139.649 17.902 139.649 18.346C139.649 18.814 139.487 19.204 139.163 19.516C138.851 19.816 138.431 19.966 137.903 19.966ZM146.373 31.144C145.233 31.144 144.345 30.856 143.709 30.28C143.073 29.692 142.755 28.822 142.755 27.67V19.174H145.563V27.634C145.563 28.042 145.671 28.36 145.887 28.588C146.103 28.804 146.397 28.912 146.769 28.912C147.213 28.912 147.591 28.792 147.903 28.552L148.659 30.532C148.371 30.736 148.023 30.892 147.615 31C147.219 31.096 146.805 31.144 146.373 31.144ZM141.261 23.692V21.532H147.975V23.692H141.261Z" fill="black"/>
</svg>
