<svg width="253" height="50" viewBox="0 0 253 50" fill="none" xmlns="http://www.w3.org/2000/svg">
<rect x="1" y="1" width="250" height="48" rx="24" fill="#1EF396" stroke="#1EF396" stroke-width="2"/>
<circle cx="228" cy="25" r="24" fill="#00C269" stroke="#00C269" stroke-width="2"/>
<path fill-rule="evenodd" clip-rule="evenodd" d="M233.498 16.251L242.749 25.5015C243.084 25.8363 243.084 26.379 242.749 26.7137L233.498 35.9648C233.163 36.2996 232.62 36.2996 232.286 35.9648C231.951 35.6301 231.951 35.0874 232.286 34.7526L240.074 26.9648H213V25.2505H240.074L232.286 17.4632C231.951 17.1285 231.951 16.5858 232.286 16.251C232.62 15.9163 233.163 15.9163 233.498 16.251Z" fill="black"/>
<path d="M63.3609 31L57.9249 18.4H61.0749L65.8269 29.56H63.9729L68.7969 18.4H71.6949L66.2409 31H63.3609ZM73.2071 31V21.316H76.0151V31H73.2071ZM74.6111 19.966C74.0951 19.966 73.6751 19.816 73.3511 19.516C73.0271 19.216 72.8651 18.844 72.8651 18.4C72.8651 17.956 73.0271 17.584 73.3511 17.284C73.6751 16.984 74.0951 16.834 74.6111 16.834C75.1271 16.834 75.5471 16.978 75.8711 17.266C76.1951 17.542 76.3571 17.902 76.3571 18.346C76.3571 18.814 76.1951 19.204 75.8711 19.516C75.5591 19.816 75.1391 19.966 74.6111 19.966ZM83.9272 31.144C82.8232 31.144 81.8512 30.928 81.0112 30.496C80.1832 30.064 79.5412 29.476 79.0852 28.732C78.6292 27.976 78.4012 27.118 78.4012 26.158C78.4012 25.186 78.6232 24.328 79.0672 23.584C79.5232 22.828 80.1412 22.24 80.9212 21.82C81.7012 21.388 82.5832 21.172 83.5672 21.172C84.5152 21.172 85.3672 21.376 86.1232 21.784C86.8912 22.18 87.4972 22.756 87.9412 23.512C88.3852 24.256 88.6072 25.15 88.6072 26.194C88.6072 26.302 88.6012 26.428 88.5892 26.572C88.5772 26.704 88.5652 26.83 88.5532 26.95H80.6872V25.312H87.0772L85.9972 25.798C85.9972 25.294 85.8952 24.856 85.6912 24.484C85.4872 24.112 85.2052 23.824 84.8452 23.62C84.4852 23.404 84.0652 23.296 83.5852 23.296C83.1052 23.296 82.6792 23.404 82.3072 23.62C81.9472 23.824 81.6652 24.118 81.4612 24.502C81.2572 24.874 81.1552 25.318 81.1552 25.834V26.266C81.1552 26.794 81.2692 27.262 81.4972 27.67C81.7372 28.066 82.0672 28.372 82.4872 28.588C82.9192 28.792 83.4232 28.894 83.9992 28.894C84.5152 28.894 84.9652 28.816 85.3492 28.66C85.7452 28.504 86.1052 28.27 86.4292 27.958L87.9232 29.578C87.4792 30.082 86.9212 30.472 86.2492 30.748C85.5772 31.012 84.8032 31.144 83.9272 31.144ZM93.0149 31L89.5229 21.316H92.1689L95.0669 29.65H93.8069L96.8309 21.316H99.2069L102.141 29.65H100.881L103.869 21.316H106.353L102.843 31H100.125L97.5509 23.854H98.3789L95.7149 31H93.0149ZM113.954 31V18.4H116.366L121.73 27.292H120.452L125.726 18.4H128.12L128.156 31H125.42L125.402 22.594H125.906L121.694 29.668H120.38L116.078 22.594H116.69V31H113.954ZM136.055 31.144C135.023 31.144 134.105 30.928 133.301 30.496C132.509 30.064 131.879 29.476 131.411 28.732C130.955 27.976 130.727 27.118 130.727 26.158C130.727 25.186 130.955 24.328 131.411 23.584C131.879 22.828 132.509 22.24 133.301 21.82C134.105 21.388 135.023 21.172 136.055 21.172C137.075 21.172 137.987 21.388 138.791 21.82C139.595 22.24 140.225 22.822 140.681 23.566C141.137 24.31 141.365 25.174 141.365 26.158C141.365 27.118 141.137 27.976 140.681 28.732C140.225 29.476 139.595 30.064 138.791 30.496C137.987 30.928 137.075 31.144 136.055 31.144ZM136.055 28.84C136.523 28.84 136.943 28.732 137.315 28.516C137.687 28.3 137.981 27.994 138.197 27.598C138.413 27.19 138.521 26.71 138.521 26.158C138.521 25.594 138.413 25.114 138.197 24.718C137.981 24.322 137.687 24.016 137.315 23.8C136.943 23.584 136.523 23.476 136.055 23.476C135.587 23.476 135.167 23.584 134.795 23.8C134.423 24.016 134.123 24.322 133.895 24.718C133.679 25.114 133.571 25.594 133.571 26.158C133.571 26.71 133.679 27.19 133.895 27.598C134.123 27.994 134.423 28.3 134.795 28.516C135.167 28.732 135.587 28.84 136.055 28.84ZM143.742 31V21.316H146.424V24.052L146.046 23.26C146.334 22.576 146.796 22.06 147.432 21.712C148.068 21.352 148.842 21.172 149.754 21.172V23.764C149.634 23.752 149.526 23.746 149.43 23.746C149.334 23.734 149.232 23.728 149.124 23.728C148.356 23.728 147.732 23.95 147.252 24.394C146.784 24.826 146.55 25.504 146.55 26.428V31H143.742ZM156.66 31.144C155.556 31.144 154.584 30.928 153.744 30.496C152.916 30.064 152.274 29.476 151.818 28.732C151.362 27.976 151.134 27.118 151.134 26.158C151.134 25.186 151.356 24.328 151.8 23.584C152.256 22.828 152.874 22.24 153.654 21.82C154.434 21.388 155.316 21.172 156.3 21.172C157.248 21.172 158.1 21.376 158.856 21.784C159.624 22.18 160.23 22.756 160.674 23.512C161.118 24.256 161.34 25.15 161.34 26.194C161.34 26.302 161.334 26.428 161.322 26.572C161.31 26.704 161.298 26.83 161.286 26.95H153.42V25.312H159.81L158.73 25.798C158.73 25.294 158.628 24.856 158.424 24.484C158.22 24.112 157.938 23.824 157.578 23.62C157.218 23.404 156.798 23.296 156.318 23.296C155.838 23.296 155.412 23.404 155.04 23.62C154.68 23.824 154.398 24.118 154.194 24.502C153.99 24.874 153.888 25.318 153.888 25.834V26.266C153.888 26.794 154.002 27.262 154.23 27.67C154.47 28.066 154.8 28.372 155.22 28.588C155.652 28.792 156.156 28.894 156.732 28.894C157.248 28.894 157.698 28.816 158.082 28.66C158.478 28.504 158.838 28.27 159.162 27.958L160.656 29.578C160.212 30.082 159.654 30.472 158.982 30.748C158.31 31.012 157.536 31.144 156.66 31.144Z" fill="black"/>
</svg>
