<svg width="222" height="36" viewBox="0 0 222 36" fill="none" xmlns="http://www.w3.org/2000/svg">
<rect x="1" y="1.59143" width="220" height="33.4086" rx="16.7043" stroke="#1EF396" stroke-width="2"/>
<circle cx="204.296" cy="18.2957" r="16.7043" stroke="#00C269" stroke-width="2"/>
<path fill-rule="evenodd" clip-rule="evenodd" d="M208.189 12.1L214.74 18.6509C214.977 18.888 214.977 19.2723 214.74 19.5093L208.189 26.0607C207.952 26.2977 207.568 26.2977 207.331 26.0607C207.094 25.8236 207.094 25.4393 207.331 25.2023L212.846 19.6871H193.673V18.4731H212.846L207.331 12.9584C207.094 12.7213 207.094 12.337 207.331 12.1C207.568 11.8629 207.952 11.8629 208.189 12.1Z" fill="#00BF72"/>
<path d="M34.9926 23L30.7646 13.2H33.2146L36.9106 21.88H35.4686L39.2206 13.2H41.4746L37.2326 23H34.9926ZM42.7619 23V15.468H44.9459V23H42.7619ZM43.8539 14.418C43.4526 14.418 43.1259 14.3013 42.8739 14.068C42.6219 13.8347 42.4959 13.5453 42.4959 13.2C42.4959 12.8547 42.6219 12.5653 42.8739 12.332C43.1259 12.0987 43.4526 11.982 43.8539 11.982C44.2552 11.982 44.5819 12.094 44.8339 12.318C45.0859 12.5327 45.2119 12.8127 45.2119 13.158C45.2119 13.522 45.0859 13.8253 44.8339 14.068C44.5912 14.3013 44.2646 14.418 43.8539 14.418ZM51.2108 23.112C50.3522 23.112 49.5962 22.944 48.9428 22.608C48.2988 22.272 47.7995 21.8147 47.4448 21.236C47.0902 20.648 46.9128 19.9807 46.9128 19.234C46.9128 18.478 47.0855 17.8107 47.4308 17.232C47.7855 16.644 48.2662 16.1867 48.8728 15.86C49.4795 15.524 50.1655 15.356 50.9308 15.356C51.6682 15.356 52.3308 15.5147 52.9188 15.832C53.5162 16.14 53.9875 16.588 54.3328 17.176C54.6782 17.7547 54.8508 18.45 54.8508 19.262C54.8508 19.346 54.8462 19.444 54.8368 19.556C54.8275 19.6587 54.8182 19.7567 54.8088 19.85H48.6908V18.576H53.6608L52.8208 18.954C52.8208 18.562 52.7415 18.2213 52.5828 17.932C52.4242 17.6427 52.2048 17.4187 51.9248 17.26C51.6448 17.092 51.3182 17.008 50.9448 17.008C50.5715 17.008 50.2402 17.092 49.9508 17.26C49.6708 17.4187 49.4515 17.6473 49.2928 17.946C49.1342 18.2353 49.0548 18.5807 49.0548 18.982V19.318C49.0548 19.7287 49.1435 20.0927 49.3208 20.41C49.5075 20.718 49.7642 20.956 50.0908 21.124C50.4268 21.2827 50.8188 21.362 51.2668 21.362C51.6682 21.362 52.0182 21.3013 52.3168 21.18C52.6248 21.0587 52.9048 20.8767 53.1568 20.634L54.3188 21.894C53.9735 22.286 53.5395 22.5893 53.0168 22.804C52.4942 23.0093 51.8922 23.112 51.2108 23.112ZM58.3902 23L55.6742 15.468H57.7322L59.9862 21.95H59.0062L61.3582 15.468H63.2062L65.4882 21.95H64.5082L66.8322 15.468H68.7642L66.0342 23H63.9202L61.9182 17.442H62.5622L60.4902 23H58.3902ZM74.8983 23V13.2H77.1663V21.152H82.0803V23H74.8983ZM87.2365 23.112C86.4339 23.112 85.7199 22.944 85.0945 22.608C84.4785 22.272 83.9885 21.8147 83.6245 21.236C83.2699 20.648 83.0925 19.9807 83.0925 19.234C83.0925 18.478 83.2699 17.8107 83.6245 17.232C83.9885 16.644 84.4785 16.1867 85.0945 15.86C85.7199 15.524 86.4339 15.356 87.2365 15.356C88.0299 15.356 88.7392 15.524 89.3645 15.86C89.9899 16.1867 90.4799 16.6393 90.8345 17.218C91.1892 17.7967 91.3665 18.4687 91.3665 19.234C91.3665 19.9807 91.1892 20.648 90.8345 21.236C90.4799 21.8147 89.9899 22.272 89.3645 22.608C88.7392 22.944 88.0299 23.112 87.2365 23.112ZM87.2365 21.32C87.6005 21.32 87.9272 21.236 88.2165 21.068C88.5059 20.9 88.7345 20.662 88.9025 20.354C89.0705 20.0367 89.1545 19.6633 89.1545 19.234C89.1545 18.7953 89.0705 18.422 88.9025 18.114C88.7345 17.806 88.5059 17.568 88.2165 17.4C87.9272 17.232 87.6005 17.148 87.2365 17.148C86.8725 17.148 86.5459 17.232 86.2565 17.4C85.9672 17.568 85.7339 17.806 85.5565 18.114C85.3885 18.422 85.3045 18.7953 85.3045 19.234C85.3045 19.6633 85.3885 20.0367 85.5565 20.354C85.7339 20.662 85.9672 20.9 86.2565 21.068C86.5459 21.236 86.8725 21.32 87.2365 21.32ZM96.9664 23.112C96.1544 23.112 95.431 22.9487 94.7964 22.622C94.1617 22.286 93.6624 21.824 93.2984 21.236C92.9437 20.648 92.7664 19.9807 92.7664 19.234C92.7664 18.478 92.9437 17.8107 93.2984 17.232C93.6624 16.644 94.1617 16.1867 94.7964 15.86C95.431 15.524 96.1544 15.356 96.9664 15.356C97.7597 15.356 98.4504 15.524 99.0384 15.86C99.6264 16.1867 100.06 16.658 100.34 17.274L98.6464 18.184C98.4504 17.8293 98.203 17.568 97.9044 17.4C97.615 17.232 97.2977 17.148 96.9524 17.148C96.579 17.148 96.243 17.232 95.9444 17.4C95.6457 17.568 95.4077 17.806 95.2304 18.114C95.0624 18.422 94.9784 18.7953 94.9784 19.234C94.9784 19.6727 95.0624 20.046 95.2304 20.354C95.4077 20.662 95.6457 20.9 95.9444 21.068C96.243 21.236 96.579 21.32 96.9524 21.32C97.2977 21.32 97.615 21.2407 97.9044 21.082C98.203 20.914 98.4504 20.648 98.6464 20.284L100.34 21.208C100.06 21.8147 99.6264 22.286 99.0384 22.622C98.4504 22.9487 97.7597 23.112 96.9664 23.112ZM106.718 23V21.53L106.578 21.208V18.576C106.578 18.1093 106.433 17.7453 106.144 17.484C105.864 17.2227 105.43 17.092 104.842 17.092C104.441 17.092 104.044 17.1573 103.652 17.288C103.269 17.4093 102.943 17.5773 102.672 17.792L101.888 16.266C102.299 15.9767 102.793 15.7527 103.372 15.594C103.951 15.4353 104.539 15.356 105.136 15.356C106.284 15.356 107.175 15.6267 107.81 16.168C108.445 16.7093 108.762 17.554 108.762 18.702V23H106.718ZM104.422 23.112C103.834 23.112 103.33 23.014 102.91 22.818C102.49 22.6127 102.168 22.3373 101.944 21.992C101.72 21.6467 101.608 21.2593 101.608 20.83C101.608 20.382 101.715 19.99 101.93 19.654C102.154 19.318 102.504 19.0567 102.98 18.87C103.456 18.674 104.077 18.576 104.842 18.576H106.844V19.85H105.08C104.567 19.85 104.212 19.934 104.016 20.102C103.829 20.27 103.736 20.48 103.736 20.732C103.736 21.012 103.843 21.236 104.058 21.404C104.282 21.5627 104.585 21.642 104.968 21.642C105.332 21.642 105.659 21.558 105.948 21.39C106.237 21.2127 106.447 20.956 106.578 20.62L106.914 21.628C106.755 22.1133 106.466 22.482 106.046 22.734C105.626 22.986 105.085 23.112 104.422 23.112ZM114.318 23.112C113.432 23.112 112.741 22.888 112.246 22.44C111.752 21.9827 111.504 21.306 111.504 20.41V13.802H113.688V20.382C113.688 20.6993 113.772 20.9467 113.94 21.124C114.108 21.292 114.337 21.376 114.626 21.376C114.972 21.376 115.266 21.2827 115.508 21.096L116.096 22.636C115.872 22.7947 115.602 22.916 115.284 23C114.976 23.0747 114.654 23.112 114.318 23.112ZM110.342 17.316V15.636H115.564V17.316H110.342ZM117.822 23V15.468H120.006V23H117.822ZM118.914 14.418C118.513 14.418 118.186 14.3013 117.934 14.068C117.682 13.8347 117.556 13.5453 117.556 13.2C117.556 12.8547 117.682 12.5653 117.934 12.332C118.186 12.0987 118.513 11.982 118.914 11.982C119.316 11.982 119.642 12.094 119.894 12.318C120.146 12.5327 120.272 12.8127 120.272 13.158C120.272 13.522 120.146 13.8253 119.894 14.068C119.652 14.3013 119.325 14.418 118.914 14.418ZM126.117 23.112C125.315 23.112 124.601 22.944 123.975 22.608C123.359 22.272 122.869 21.8147 122.505 21.236C122.151 20.648 121.973 19.9807 121.973 19.234C121.973 18.478 122.151 17.8107 122.505 17.232C122.869 16.644 123.359 16.1867 123.975 15.86C124.601 15.524 125.315 15.356 126.117 15.356C126.911 15.356 127.62 15.524 128.245 15.86C128.871 16.1867 129.361 16.6393 129.715 17.218C130.07 17.7967 130.247 18.4687 130.247 19.234C130.247 19.9807 130.07 20.648 129.715 21.236C129.361 21.8147 128.871 22.272 128.245 22.608C127.62 22.944 126.911 23.112 126.117 23.112ZM126.117 21.32C126.481 21.32 126.808 21.236 127.097 21.068C127.387 20.9 127.615 20.662 127.783 20.354C127.951 20.0367 128.035 19.6633 128.035 19.234C128.035 18.7953 127.951 18.422 127.783 18.114C127.615 17.806 127.387 17.568 127.097 17.4C126.808 17.232 126.481 17.148 126.117 17.148C125.753 17.148 125.427 17.232 125.137 17.4C124.848 17.568 124.615 17.806 124.437 18.114C124.269 18.422 124.185 18.7953 124.185 19.234C124.185 19.6633 124.269 20.0367 124.437 20.354C124.615 20.662 124.848 20.9 125.137 21.068C125.427 21.236 125.753 21.32 126.117 21.32ZM136.785 15.356C137.383 15.356 137.915 15.4773 138.381 15.72C138.857 15.9533 139.231 16.3173 139.501 16.812C139.772 17.2973 139.907 17.9227 139.907 18.688V23H137.723V19.024C137.723 18.4173 137.588 17.9693 137.317 17.68C137.056 17.3907 136.683 17.246 136.197 17.246C135.852 17.246 135.539 17.3207 135.259 17.47C134.989 17.61 134.774 17.8293 134.615 18.128C134.466 18.4267 134.391 18.8093 134.391 19.276V23H132.207V15.468H134.293V17.554L133.901 16.924C134.172 16.42 134.559 16.0327 135.063 15.762C135.567 15.4913 136.141 15.356 136.785 15.356ZM147.006 23V13.2H149.274V23H147.006ZM156.524 15.356C157.121 15.356 157.653 15.4773 158.12 15.72C158.596 15.9533 158.969 16.3173 159.24 16.812C159.51 17.2973 159.646 17.9227 159.646 18.688V23H157.462V19.024C157.462 18.4173 157.326 17.9693 157.056 17.68C156.794 17.3907 156.421 17.246 155.936 17.246C155.59 17.246 155.278 17.3207 154.998 17.47C154.727 17.61 154.512 17.8293 154.354 18.128C154.204 18.4267 154.13 18.8093 154.13 19.276V23H151.946V15.468H154.032V17.554L153.64 16.924C153.91 16.42 154.298 16.0327 154.802 15.762C155.306 15.4913 155.88 15.356 156.524 15.356ZM162.391 23V15.3C162.391 14.4507 162.643 13.774 163.147 13.27C163.651 12.7567 164.37 12.5 165.303 12.5C165.621 12.5 165.924 12.5327 166.213 12.598C166.512 12.6633 166.764 12.766 166.969 12.906L166.395 14.488C166.274 14.404 166.139 14.3387 165.989 14.292C165.84 14.2453 165.681 14.222 165.513 14.222C165.196 14.222 164.949 14.3153 164.771 14.502C164.603 14.6793 164.519 14.95 164.519 15.314V16.014L164.575 16.952V23H162.391ZM161.229 17.316V15.636H166.451V17.316H161.229ZM171.528 23.112C170.725 23.112 170.011 22.944 169.386 22.608C168.77 22.272 168.28 21.8147 167.916 21.236C167.561 20.648 167.384 19.9807 167.384 19.234C167.384 18.478 167.561 17.8107 167.916 17.232C168.28 16.644 168.77 16.1867 169.386 15.86C170.011 15.524 170.725 15.356 171.528 15.356C172.321 15.356 173.03 15.524 173.656 15.86C174.281 16.1867 174.771 16.6393 175.126 17.218C175.48 17.7967 175.658 18.4687 175.658 19.234C175.658 19.9807 175.48 20.648 175.126 21.236C174.771 21.8147 174.281 22.272 173.656 22.608C173.03 22.944 172.321 23.112 171.528 23.112ZM171.528 21.32C171.892 21.32 172.218 21.236 172.508 21.068C172.797 20.9 173.026 20.662 173.194 20.354C173.362 20.0367 173.446 19.6633 173.446 19.234C173.446 18.7953 173.362 18.422 173.194 18.114C173.026 17.806 172.797 17.568 172.508 17.4C172.218 17.232 171.892 17.148 171.528 17.148C171.164 17.148 170.837 17.232 170.548 17.4C170.258 17.568 170.025 17.806 169.848 18.114C169.68 18.422 169.596 18.7953 169.596 19.234C169.596 19.6633 169.68 20.0367 169.848 20.354C170.025 20.662 170.258 20.9 170.548 21.068C170.837 21.236 171.164 21.32 171.528 21.32Z" fill="black"/>
</svg>
