<svg width="257" height="50" viewBox="0 0 257 50" fill="none" xmlns="http://www.w3.org/2000/svg">
<rect x="1" y="1" width="255" height="48" rx="24" stroke="#1EF396" stroke-width="2"/>
<circle cx="232" cy="25" r="24" stroke="#00C269" stroke-width="2"/>
<path fill-rule="evenodd" clip-rule="evenodd" d="M237.498 16.251L246.749 25.5015C247.084 25.8363 247.084 26.379 246.749 26.7137L237.498 35.9648C237.163 36.2996 236.62 36.2996 236.286 35.9648C235.951 35.6301 235.951 35.0874 236.286 34.7526L244.074 26.9648H217V25.2505H244.074L236.286 17.4632C235.951 17.1285 235.951 16.5858 236.286 16.251C236.62 15.9163 237.163 15.9163 237.498 16.251Z" fill="#00BF72"/>
<path d="M46.0767 30L40.6407 17.4H43.7907L48.5427 28.56H46.6887L51.5127 17.4H54.4107L48.9567 30H46.0767ZM55.923 30V20.316H58.731V30H55.923ZM57.327 18.966C56.811 18.966 56.391 18.816 56.067 18.516C55.743 18.216 55.581 17.844 55.581 17.4C55.581 16.956 55.743 16.584 56.067 16.284C56.391 15.984 56.811 15.834 57.327 15.834C57.843 15.834 58.263 15.978 58.587 16.266C58.911 16.542 59.073 16.902 59.073 17.346C59.073 17.814 58.911 18.204 58.587 18.516C58.275 18.816 57.855 18.966 57.327 18.966ZM66.643 30.144C65.539 30.144 64.567 29.928 63.727 29.496C62.899 29.064 62.257 28.476 61.801 27.732C61.345 26.976 61.117 26.118 61.117 25.158C61.117 24.186 61.339 23.328 61.783 22.584C62.239 21.828 62.857 21.24 63.637 20.82C64.417 20.388 65.299 20.172 66.283 20.172C67.231 20.172 68.083 20.376 68.839 20.784C69.607 21.18 70.213 21.756 70.657 22.512C71.101 23.256 71.323 24.15 71.323 25.194C71.323 25.302 71.317 25.428 71.305 25.572C71.293 25.704 71.281 25.83 71.269 25.95H63.403V24.312H69.793L68.713 24.798C68.713 24.294 68.611 23.856 68.407 23.484C68.203 23.112 67.921 22.824 67.561 22.62C67.201 22.404 66.781 22.296 66.301 22.296C65.821 22.296 65.395 22.404 65.023 22.62C64.663 22.824 64.381 23.118 64.177 23.502C63.973 23.874 63.871 24.318 63.871 24.834V25.266C63.871 25.794 63.985 26.262 64.213 26.67C64.453 27.066 64.783 27.372 65.203 27.588C65.635 27.792 66.139 27.894 66.715 27.894C67.231 27.894 67.681 27.816 68.065 27.66C68.461 27.504 68.821 27.27 69.145 26.958L70.639 28.578C70.195 29.082 69.637 29.472 68.965 29.748C68.293 30.012 67.519 30.144 66.643 30.144ZM75.7307 30L72.2387 20.316H74.8847L77.7827 28.65H76.5227L79.5467 20.316H81.9227L84.8567 28.65H83.5967L86.5847 20.316H89.0687L85.5587 30H82.8407L80.2667 22.854H81.0947L78.4307 30H75.7307ZM100.81 30.216C99.8018 30.216 98.8358 30.084 97.9118 29.82C96.9878 29.544 96.2438 29.19 95.6798 28.758L96.6698 26.562C97.2098 26.946 97.8458 27.264 98.5778 27.516C99.3218 27.756 100.072 27.876 100.828 27.876C101.404 27.876 101.866 27.822 102.214 27.714C102.574 27.594 102.838 27.432 103.006 27.228C103.174 27.024 103.258 26.79 103.258 26.526C103.258 26.19 103.126 25.926 102.862 25.734C102.598 25.53 102.25 25.368 101.818 25.248C101.386 25.116 100.906 24.996 100.378 24.888C99.8618 24.768 99.3398 24.624 98.8118 24.456C98.2958 24.288 97.8218 24.072 97.3898 23.808C96.9578 23.544 96.6038 23.196 96.3278 22.764C96.0638 22.332 95.9318 21.78 95.9318 21.108C95.9318 20.388 96.1238 19.734 96.5078 19.146C96.9038 18.546 97.4918 18.072 98.2718 17.724C99.0638 17.364 100.054 17.184 101.242 17.184C102.034 17.184 102.814 17.28 103.582 17.472C104.35 17.652 105.028 17.928 105.616 18.3L104.716 20.514C104.128 20.178 103.54 19.932 102.952 19.776C102.364 19.608 101.788 19.524 101.224 19.524C100.66 19.524 100.198 19.59 99.8378 19.722C99.4778 19.854 99.2198 20.028 99.0638 20.244C98.9078 20.448 98.8298 20.688 98.8298 20.964C98.8298 21.288 98.9618 21.552 99.2258 21.756C99.4898 21.948 99.8378 22.104 100.27 22.224C100.702 22.344 101.176 22.464 101.692 22.584C102.22 22.704 102.742 22.842 103.258 22.998C103.786 23.154 104.266 23.364 104.698 23.628C105.13 23.892 105.478 24.24 105.742 24.672C106.018 25.104 106.156 25.65 106.156 26.31C106.156 27.018 105.958 27.666 105.562 28.254C105.166 28.842 104.572 29.316 103.78 29.676C103 30.036 102.01 30.216 100.81 30.216ZM113.13 30.144C112.086 30.144 111.156 29.934 110.34 29.514C109.524 29.082 108.882 28.488 108.414 27.732C107.958 26.976 107.73 26.118 107.73 25.158C107.73 24.186 107.958 23.328 108.414 22.584C108.882 21.828 109.524 21.24 110.34 20.82C111.156 20.388 112.086 20.172 113.13 20.172C114.15 20.172 115.038 20.388 115.794 20.82C116.55 21.24 117.108 21.846 117.468 22.638L115.29 23.808C115.038 23.352 114.72 23.016 114.336 22.8C113.964 22.584 113.556 22.476 113.112 22.476C112.632 22.476 112.2 22.584 111.816 22.8C111.432 23.016 111.126 23.322 110.898 23.718C110.682 24.114 110.574 24.594 110.574 25.158C110.574 25.722 110.682 26.202 110.898 26.598C111.126 26.994 111.432 27.3 111.816 27.516C112.2 27.732 112.632 27.84 113.112 27.84C113.556 27.84 113.964 27.738 114.336 27.534C114.72 27.318 115.038 26.976 115.29 26.508L117.468 27.696C117.108 28.476 116.55 29.082 115.794 29.514C115.038 29.934 114.15 30.144 113.13 30.144ZM125.418 20.172C126.186 20.172 126.87 20.328 127.47 20.64C128.082 20.94 128.562 21.408 128.91 22.044C129.258 22.668 129.432 23.472 129.432 24.456V30H126.624V24.888C126.624 24.108 126.45 23.532 126.102 23.16C125.766 22.788 125.286 22.602 124.662 22.602C124.218 22.602 123.816 22.698 123.456 22.89C123.108 23.07 122.832 23.352 122.628 23.736C122.436 24.12 122.34 24.612 122.34 25.212V30H119.532V16.644H122.34V22.998L121.71 22.188C122.058 21.54 122.556 21.042 123.204 20.694C123.852 20.346 124.59 20.172 125.418 20.172ZM137.354 30.144C136.25 30.144 135.278 29.928 134.438 29.496C133.61 29.064 132.968 28.476 132.512 27.732C132.056 26.976 131.828 26.118 131.828 25.158C131.828 24.186 132.05 23.328 132.494 22.584C132.95 21.828 133.568 21.24 134.348 20.82C135.128 20.388 136.01 20.172 136.994 20.172C137.942 20.172 138.794 20.376 139.55 20.784C140.318 21.18 140.924 21.756 141.368 22.512C141.812 23.256 142.034 24.15 142.034 25.194C142.034 25.302 142.028 25.428 142.016 25.572C142.004 25.704 141.992 25.83 141.98 25.95H134.114V24.312H140.504L139.424 24.798C139.424 24.294 139.322 23.856 139.118 23.484C138.914 23.112 138.632 22.824 138.272 22.62C137.912 22.404 137.492 22.296 137.012 22.296C136.532 22.296 136.106 22.404 135.734 22.62C135.374 22.824 135.092 23.118 134.888 23.502C134.684 23.874 134.582 24.318 134.582 24.834V25.266C134.582 25.794 134.696 26.262 134.924 26.67C135.164 27.066 135.494 27.372 135.914 27.588C136.346 27.792 136.85 27.894 137.426 27.894C137.942 27.894 138.392 27.816 138.776 27.66C139.172 27.504 139.532 27.27 139.856 26.958L141.35 28.578C140.906 29.082 140.348 29.472 139.676 29.748C139.004 30.012 138.23 30.144 137.354 30.144ZM148.561 30.144C147.649 30.144 146.827 29.94 146.095 29.532C145.363 29.112 144.781 28.53 144.349 27.786C143.929 27.042 143.719 26.166 143.719 25.158C143.719 24.138 143.929 23.256 144.349 22.512C144.781 21.768 145.363 21.192 146.095 20.784C146.827 20.376 147.649 20.172 148.561 20.172C149.377 20.172 150.091 20.352 150.703 20.712C151.315 21.072 151.789 21.618 152.125 22.35C152.461 23.082 152.629 24.018 152.629 25.158C152.629 26.286 152.467 27.222 152.143 27.966C151.819 28.698 151.351 29.244 150.739 29.604C150.139 29.964 149.413 30.144 148.561 30.144ZM149.047 27.84C149.503 27.84 149.917 27.732 150.289 27.516C150.661 27.3 150.955 26.994 151.171 26.598C151.399 26.19 151.513 25.71 151.513 25.158C151.513 24.594 151.399 24.114 151.171 23.718C150.955 23.322 150.661 23.016 150.289 22.8C149.917 22.584 149.503 22.476 149.047 22.476C148.579 22.476 148.159 22.584 147.787 22.8C147.415 23.016 147.115 23.322 146.887 23.718C146.671 24.114 146.563 24.594 146.563 25.158C146.563 25.71 146.671 26.19 146.887 26.598C147.115 26.994 147.415 27.3 147.787 27.516C148.159 27.732 148.579 27.84 149.047 27.84ZM151.585 30V28.02L151.639 25.14L151.459 22.278V16.644H154.267V30H151.585ZM161.452 30.144C160.648 30.144 159.928 29.988 159.292 29.676C158.668 29.364 158.182 28.89 157.834 28.254C157.486 27.606 157.312 26.784 157.312 25.788V20.316H160.12V25.374C160.12 26.178 160.288 26.772 160.624 27.156C160.972 27.528 161.458 27.714 162.082 27.714C162.514 27.714 162.898 27.624 163.234 27.444C163.57 27.252 163.834 26.964 164.026 26.58C164.218 26.184 164.314 25.692 164.314 25.104V20.316H167.122V30H164.458V27.336L164.944 28.11C164.62 28.782 164.14 29.292 163.504 29.64C162.88 29.976 162.196 30.144 161.452 30.144ZM170.224 30V16.644H173.032V30H170.224ZM180.944 30.144C179.84 30.144 178.868 29.928 178.028 29.496C177.2 29.064 176.558 28.476 176.102 27.732C175.646 26.976 175.418 26.118 175.418 25.158C175.418 24.186 175.64 23.328 176.084 22.584C176.54 21.828 177.158 21.24 177.938 20.82C178.718 20.388 179.6 20.172 180.584 20.172C181.532 20.172 182.384 20.376 183.14 20.784C183.908 21.18 184.514 21.756 184.958 22.512C185.402 23.256 185.624 24.15 185.624 25.194C185.624 25.302 185.618 25.428 185.606 25.572C185.594 25.704 185.582 25.83 185.57 25.95H177.704V24.312H184.094L183.014 24.798C183.014 24.294 182.912 23.856 182.708 23.484C182.504 23.112 182.222 22.824 181.862 22.62C181.502 22.404 181.082 22.296 180.602 22.296C180.122 22.296 179.696 22.404 179.324 22.62C178.964 22.824 178.682 23.118 178.478 23.502C178.274 23.874 178.172 24.318 178.172 24.834V25.266C178.172 25.794 178.286 26.262 178.514 26.67C178.754 27.066 179.084 27.372 179.504 27.588C179.936 27.792 180.44 27.894 181.016 27.894C181.532 27.894 181.982 27.816 182.366 27.66C182.762 27.504 183.122 27.27 183.446 26.958L184.94 28.578C184.496 29.082 183.938 29.472 183.266 29.748C182.594 30.012 181.82 30.144 180.944 30.144Z" fill="black"/>
</svg>
