<svg width="267" height="50" viewBox="0 0 267 50" fill="none" xmlns="http://www.w3.org/2000/svg">
<rect x="1" y="1" width="265" height="48" rx="24" stroke="#1EF396" stroke-width="2"/>
<circle cx="242" cy="25" r="24" stroke="#00C269" stroke-width="2"/>
<path fill-rule="evenodd" clip-rule="evenodd" d="M247.498 16.251L256.749 25.5015C257.084 25.8363 257.084 26.379 256.749 26.7137L247.498 35.9648C247.163 36.2996 246.62 36.2996 246.286 35.9648C245.951 35.6301 245.951 35.0874 246.286 34.7526L254.074 26.9648H227V25.2505H254.074L246.286 17.4632C245.951 17.1285 245.951 16.5858 246.286 16.251C246.62 15.9163 247.163 15.9163 247.498 16.251Z" fill="#00BF72"/>
<path d="M28.1334 30L22.6974 17.4H25.8474L30.5994 28.56H28.7454L33.5694 17.4H36.4674L31.0134 30H28.1334ZM37.9796 30V20.316H40.7876V30H37.9796ZM39.3836 18.966C38.8676 18.966 38.4476 18.816 38.1236 18.516C37.7996 18.216 37.6376 17.844 37.6376 17.4C37.6376 16.956 37.7996 16.584 38.1236 16.284C38.4476 15.984 38.8676 15.834 39.3836 15.834C39.8996 15.834 40.3196 15.978 40.6436 16.266C40.9676 16.542 41.1296 16.902 41.1296 17.346C41.1296 17.814 40.9676 18.204 40.6436 18.516C40.3316 18.816 39.9116 18.966 39.3836 18.966ZM48.6997 30.144C47.5957 30.144 46.6237 29.928 45.7837 29.496C44.9557 29.064 44.3137 28.476 43.8577 27.732C43.4017 26.976 43.1737 26.118 43.1737 25.158C43.1737 24.186 43.3957 23.328 43.8397 22.584C44.2957 21.828 44.9137 21.24 45.6937 20.82C46.4737 20.388 47.3557 20.172 48.3397 20.172C49.2877 20.172 50.1397 20.376 50.8957 20.784C51.6637 21.18 52.2697 21.756 52.7137 22.512C53.1577 23.256 53.3797 24.15 53.3797 25.194C53.3797 25.302 53.3737 25.428 53.3617 25.572C53.3497 25.704 53.3377 25.83 53.3257 25.95H45.4597V24.312H51.8497L50.7697 24.798C50.7697 24.294 50.6677 23.856 50.4637 23.484C50.2597 23.112 49.9777 22.824 49.6177 22.62C49.2577 22.404 48.8377 22.296 48.3577 22.296C47.8777 22.296 47.4517 22.404 47.0797 22.62C46.7197 22.824 46.4377 23.118 46.2337 23.502C46.0297 23.874 45.9277 24.318 45.9277 24.834V25.266C45.9277 25.794 46.0417 26.262 46.2697 26.67C46.5097 27.066 46.8397 27.372 47.2597 27.588C47.6917 27.792 48.1957 27.894 48.7717 27.894C49.2877 27.894 49.7377 27.816 50.1217 27.66C50.5177 27.504 50.8777 27.27 51.2017 26.958L52.6957 28.578C52.2517 29.082 51.6937 29.472 51.0217 29.748C50.3497 30.012 49.5757 30.144 48.6997 30.144ZM57.7873 30L54.2953 20.316H56.9413L59.8393 28.65H58.5793L61.6033 20.316H63.9793L66.9133 28.65H65.6533L68.6413 20.316H71.1253L67.6153 30H64.8973L62.3233 22.854H63.1513L60.4873 30H57.7873ZM78.7264 30V17.4H81.6424V27.624H87.9604V30H78.7264ZM94.447 30.144C93.415 30.144 92.497 29.928 91.693 29.496C90.901 29.064 90.271 28.476 89.803 27.732C89.347 26.976 89.119 26.118 89.119 25.158C89.119 24.186 89.347 23.328 89.803 22.584C90.271 21.828 90.901 21.24 91.693 20.82C92.497 20.388 93.415 20.172 94.447 20.172C95.467 20.172 96.379 20.388 97.183 20.82C97.987 21.24 98.617 21.822 99.073 22.566C99.529 23.31 99.757 24.174 99.757 25.158C99.757 26.118 99.529 26.976 99.073 27.732C98.617 28.476 97.987 29.064 97.183 29.496C96.379 29.928 95.467 30.144 94.447 30.144ZM94.447 27.84C94.915 27.84 95.335 27.732 95.707 27.516C96.079 27.3 96.373 26.994 96.589 26.598C96.805 26.19 96.913 25.71 96.913 25.158C96.913 24.594 96.805 24.114 96.589 23.718C96.373 23.322 96.079 23.016 95.707 22.8C95.335 22.584 94.915 22.476 94.447 22.476C93.979 22.476 93.559 22.584 93.187 22.8C92.815 23.016 92.515 23.322 92.287 23.718C92.071 24.114 91.963 24.594 91.963 25.158C91.963 25.71 92.071 26.19 92.287 26.598C92.515 26.994 92.815 27.3 93.187 27.516C93.559 27.732 93.979 27.84 94.447 27.84ZM106.814 30.144C105.77 30.144 104.84 29.934 104.024 29.514C103.208 29.082 102.566 28.488 102.098 27.732C101.642 26.976 101.414 26.118 101.414 25.158C101.414 24.186 101.642 23.328 102.098 22.584C102.566 21.828 103.208 21.24 104.024 20.82C104.84 20.388 105.77 20.172 106.814 20.172C107.834 20.172 108.722 20.388 109.478 20.82C110.234 21.24 110.792 21.846 111.152 22.638L108.974 23.808C108.722 23.352 108.404 23.016 108.02 22.8C107.648 22.584 107.24 22.476 106.796 22.476C106.316 22.476 105.884 22.584 105.5 22.8C105.116 23.016 104.81 23.322 104.582 23.718C104.366 24.114 104.258 24.594 104.258 25.158C104.258 25.722 104.366 26.202 104.582 26.598C104.81 26.994 105.116 27.3 105.5 27.516C105.884 27.732 106.316 27.84 106.796 27.84C107.24 27.84 107.648 27.738 108.02 27.534C108.404 27.318 108.722 26.976 108.974 26.508L111.152 27.696C110.792 28.476 110.234 29.082 109.478 29.514C108.722 29.934 107.834 30.144 106.814 30.144ZM119.209 30V28.11L119.029 27.696V24.312C119.029 23.712 118.843 23.244 118.471 22.908C118.111 22.572 117.553 22.404 116.797 22.404C116.281 22.404 115.771 22.488 115.267 22.656C114.775 22.812 114.355 23.028 114.007 23.304L112.999 21.342C113.527 20.97 114.163 20.682 114.907 20.478C115.651 20.274 116.407 20.172 117.175 20.172C118.651 20.172 119.797 20.52 120.613 21.216C121.429 21.912 121.837 22.998 121.837 24.474V30H119.209ZM116.257 30.144C115.501 30.144 114.853 30.018 114.313 29.766C113.773 29.502 113.359 29.148 113.071 28.704C112.783 28.26 112.639 27.762 112.639 27.21C112.639 26.634 112.777 26.13 113.053 25.698C113.341 25.266 113.791 24.93 114.403 24.69C115.015 24.438 115.813 24.312 116.797 24.312H119.371V25.95H117.103C116.443 25.95 115.987 26.058 115.735 26.274C115.495 26.49 115.375 26.76 115.375 27.084C115.375 27.444 115.513 27.732 115.789 27.948C116.077 28.152 116.467 28.254 116.959 28.254C117.427 28.254 117.847 28.146 118.219 27.93C118.591 27.702 118.861 27.372 119.029 26.94L119.461 28.236C119.257 28.86 118.885 29.334 118.345 29.658C117.805 29.982 117.109 30.144 116.257 30.144ZM128.838 30.144C127.698 30.144 126.81 29.856 126.174 29.28C125.538 28.692 125.22 27.822 125.22 26.67V18.174H128.028V26.634C128.028 27.042 128.136 27.36 128.352 27.588C128.568 27.804 128.862 27.912 129.234 27.912C129.678 27.912 130.056 27.792 130.368 27.552L131.124 29.532C130.836 29.736 130.488 29.892 130.08 30C129.684 30.096 129.27 30.144 128.838 30.144ZM123.726 22.692V20.532H130.44V22.692H123.726ZM133.2 30V20.316H136.008V30H133.2ZM134.604 18.966C134.088 18.966 133.668 18.816 133.344 18.516C133.02 18.216 132.858 17.844 132.858 17.4C132.858 16.956 133.02 16.584 133.344 16.284C133.668 15.984 134.088 15.834 134.604 15.834C135.12 15.834 135.54 15.978 135.864 16.266C136.188 16.542 136.35 16.902 136.35 17.346C136.35 17.814 136.188 18.204 135.864 18.516C135.552 18.816 135.132 18.966 134.604 18.966ZM143.722 30.144C142.69 30.144 141.772 29.928 140.968 29.496C140.176 29.064 139.546 28.476 139.078 27.732C138.622 26.976 138.394 26.118 138.394 25.158C138.394 24.186 138.622 23.328 139.078 22.584C139.546 21.828 140.176 21.24 140.968 20.82C141.772 20.388 142.69 20.172 143.722 20.172C144.742 20.172 145.654 20.388 146.458 20.82C147.262 21.24 147.892 21.822 148.348 22.566C148.804 23.31 149.032 24.174 149.032 25.158C149.032 26.118 148.804 26.976 148.348 27.732C147.892 28.476 147.262 29.064 146.458 29.496C145.654 29.928 144.742 30.144 143.722 30.144ZM143.722 27.84C144.19 27.84 144.61 27.732 144.982 27.516C145.354 27.3 145.648 26.994 145.864 26.598C146.08 26.19 146.188 25.71 146.188 25.158C146.188 24.594 146.08 24.114 145.864 23.718C145.648 23.322 145.354 23.016 144.982 22.8C144.61 22.584 144.19 22.476 143.722 22.476C143.254 22.476 142.834 22.584 142.462 22.8C142.09 23.016 141.79 23.322 141.562 23.718C141.346 24.114 141.238 24.594 141.238 25.158C141.238 25.71 141.346 26.19 141.562 26.598C141.79 26.994 142.09 27.3 142.462 27.516C142.834 27.732 143.254 27.84 143.722 27.84ZM157.295 20.172C158.063 20.172 158.747 20.328 159.347 20.64C159.959 20.94 160.439 21.408 160.787 22.044C161.135 22.668 161.309 23.472 161.309 24.456V30H158.501V24.888C158.501 24.108 158.327 23.532 157.979 23.16C157.643 22.788 157.163 22.602 156.539 22.602C156.095 22.602 155.693 22.698 155.333 22.89C154.985 23.07 154.709 23.352 154.505 23.736C154.313 24.12 154.217 24.612 154.217 25.212V30H151.409V20.316H154.091V22.998L153.587 22.188C153.935 21.54 154.433 21.042 155.081 20.694C155.729 20.346 156.467 20.172 157.295 20.172ZM170.15 30V17.4H173.066V30H170.15ZM182.245 20.172C183.013 20.172 183.697 20.328 184.297 20.64C184.909 20.94 185.389 21.408 185.737 22.044C186.085 22.668 186.259 23.472 186.259 24.456V30H183.451V24.888C183.451 24.108 183.277 23.532 182.929 23.16C182.593 22.788 182.113 22.602 181.489 22.602C181.045 22.602 180.643 22.698 180.283 22.89C179.935 23.07 179.659 23.352 179.455 23.736C179.263 24.12 179.167 24.612 179.167 25.212V30H176.359V20.316H179.041V22.998L178.537 22.188C178.885 21.54 179.383 21.042 180.031 20.694C180.679 20.346 181.417 20.172 182.245 20.172ZM189.646 30V20.1C189.646 19.008 189.97 18.138 190.618 17.49C191.266 16.83 192.19 16.5 193.39 16.5C193.798 16.5 194.188 16.542 194.56 16.626C194.944 16.71 195.268 16.842 195.532 17.022L194.794 19.056C194.638 18.948 194.464 18.864 194.272 18.804C194.08 18.744 193.876 18.714 193.66 18.714C193.252 18.714 192.934 18.834 192.706 19.074C192.49 19.302 192.382 19.65 192.382 20.118V21.018L192.454 22.224V30H189.646ZM188.152 22.692V20.532H194.866V22.692H188.152ZM201.25 30.144C200.218 30.144 199.3 29.928 198.496 29.496C197.704 29.064 197.074 28.476 196.606 27.732C196.15 26.976 195.922 26.118 195.922 25.158C195.922 24.186 196.15 23.328 196.606 22.584C197.074 21.828 197.704 21.24 198.496 20.82C199.3 20.388 200.218 20.172 201.25 20.172C202.27 20.172 203.182 20.388 203.986 20.82C204.79 21.24 205.42 21.822 205.876 22.566C206.332 23.31 206.56 24.174 206.56 25.158C206.56 26.118 206.332 26.976 205.876 27.732C205.42 28.476 204.79 29.064 203.986 29.496C203.182 29.928 202.27 30.144 201.25 30.144ZM201.25 27.84C201.718 27.84 202.138 27.732 202.51 27.516C202.882 27.3 203.176 26.994 203.392 26.598C203.608 26.19 203.716 25.71 203.716 25.158C203.716 24.594 203.608 24.114 203.392 23.718C203.176 23.322 202.882 23.016 202.51 22.8C202.138 22.584 201.718 22.476 201.25 22.476C200.782 22.476 200.362 22.584 199.99 22.8C199.618 23.016 199.318 23.322 199.09 23.718C198.874 24.114 198.766 24.594 198.766 25.158C198.766 25.71 198.874 26.19 199.09 26.598C199.318 26.994 199.618 27.3 199.99 27.516C200.362 27.732 200.782 27.84 201.25 27.84Z" fill="black"/>
</svg>
