<?xml version="1.0" encoding="utf-8"?>
<!-- Generator: Adobe Illustrator 27.6.1, SVG Export Plug-In . SVG Version: 6.00 Build 0)  -->
<svg version="1.1" id="Layer_1" xmlns="http://www.w3.org/2000/svg" xmlns:xlink="http://www.w3.org/1999/xlink" x="0px" y="0px"
	 viewBox="0 0 4000 1048.09" style="enable-background:new 0 0 4000 1048.09;" xml:space="preserve">
<style type="text/css">
	.st0{fill:#1EF396;}
	.st1{fill:#FFFFFF;}
</style>
<path class="st0" d="M3714.26,686.28c-53.62,0-97.08-43.47-97.08-97.08c0-53.62,43.47-97.09,97.08-97.09s97.08,43.47,97.08,97.09
	C3811.35,642.81,3767.88,686.28,3714.26,686.28 M641.43,160.71c-1.16-0.08-2.32-0.14-3.49-0.18c-0.74-0.02-1.46-0.11-2.2-0.11
	H285.13c-53.28,0-96.47,43.19-96.47,96.47c0,53.28,43.2,96.47,96.47,96.47l100.15,0L220.26,503.26c-0.55,0.5-1.01,1.05-1.55,1.55
	c-1.24,1.18-2.44,2.4-3.62,3.64c-1.06,1.12-2.1,2.25-3.1,3.41c-1.02,1.18-1.99,2.39-2.94,3.62c-1.01,1.3-2,2.59-2.94,3.93
	c-0.84,1.2-1.64,2.44-2.42,3.68c-0.89,1.41-1.77,2.81-2.58,4.25c-0.74,1.3-1.41,2.64-2.09,3.99c-0.71,1.42-1.43,2.85-2.07,4.31
	c-0.65,1.45-1.22,2.94-1.8,4.43c-0.53,1.4-1.07,2.8-1.54,4.22c-0.52,1.57-0.97,3.18-1.42,4.78c-0.38,1.42-0.77,2.83-1.09,4.26
	c-0.36,1.6-0.66,3.2-0.93,4.83c-0.27,1.53-0.51,3.06-0.7,4.61c-0.19,1.52-0.33,3.05-0.44,4.59c-0.13,1.71-0.22,3.41-0.26,5.13
	c-0.02,0.73-0.11,1.45-0.11,2.19c0,0.73,0.09,1.44,0.11,2.17c0.04,1.75,0.13,3.49,0.26,5.23c0.11,1.48,0.25,2.95,0.42,4.42
	c0.2,1.63,0.46,3.25,0.74,4.87c0.27,1.52,0.55,3.04,0.88,4.55c0.35,1.54,0.76,3.06,1.18,4.57c0.43,1.52,0.85,3.04,1.34,4.53
	c0.49,1.48,1.05,2.93,1.61,4.39c0.57,1.47,1.14,2.94,1.78,4.37c0.63,1.42,1.33,2.82,2.03,4.22c0.71,1.42,1.44,2.83,2.22,4.21
	c0.75,1.33,1.56,2.63,2.38,3.93c0.89,1.4,1.79,2.79,2.75,4.14c0.84,1.19,1.73,2.36,2.63,3.52c1.08,1.39,2.19,2.76,3.35,4.09
	c0.47,0.55,0.88,1.12,1.36,1.67c0.49,0.54,1.04,1,1.54,1.53c1.19,1.26,2.42,2.47,3.67,3.65c1.11,1.05,2.23,2.08,3.38,3.07
	c1.19,1.02,2.41,2,3.65,2.96c1.29,1,2.58,1.99,3.9,2.92c1.21,0.85,2.46,1.64,3.71,2.44c1.4,0.88,2.8,1.76,4.23,2.57
	c1.31,0.74,2.66,1.42,4.01,2.1c1.42,0.71,2.83,1.42,4.28,2.06c1.46,0.65,2.95,1.23,4.45,1.8c1.39,0.53,2.78,1.06,4.19,1.54
	c1.58,0.52,3.19,0.97,4.81,1.42c1.41,0.38,2.82,0.77,4.24,1.09c1.6,0.36,3.22,0.66,4.85,0.94c1.52,0.27,3.05,0.51,4.58,0.7
	c1.52,0.19,3.06,0.33,4.61,0.44c1.7,0.13,3.4,0.22,5.11,0.26c0.74,0.02,1.46,0.11,2.2,0.11l412.56,0c1.49,0,2.93-0.16,4.4-0.22
	c-42.59-11.35-74.1-50.14-74.1-96.25c0-46.11,31.5-84.9,74.09-96.25c-1.47-0.07-2.91-0.22-4.4-0.22l-162.87,0L693.67,333.9
	c23.37-17.61,38.54-45.5,38.54-77.01C732.21,205.53,692.05,163.66,641.43,160.71"/>
<path class="st1" d="M3504.07,866.74v-82h-21.74v100.92h70.01v-18.92H3504.07z M3386.55,812.21c6.01,6.15,9.02,13.82,9.02,23.03
	c0,9.29-3.01,17.01-9.02,23.16s-13.56,9.22-22.62,9.22c-9.02,0-16.56-3.1-22.62-9.29c-6.06-6.19-9.09-13.87-9.09-23.03
	s3.03-16.81,9.09-22.96c6.06-6.1,13.6-9.16,22.62-9.16v-0.13C3373.03,803.05,3380.58,806.11,3386.55,812.21 M3402.84,872.73
	c9.92-9.83,14.88-22.33,14.88-37.5c0-15.12-4.96-27.6-14.88-37.43c-9.92-9.83-22.89-14.74-38.91-14.74
	c-16.02,0-28.97,4.91-38.84,14.74c-9.88,9.83-14.81,22.3-14.81,37.43c0,15.17,4.93,27.67,14.81,37.5
	c9.87,9.83,22.82,14.74,38.84,14.74h0.07C3379.97,887.47,3392.92,882.56,3402.84,872.73 M3219.6,812.21
	c6.01,6.15,9.02,13.82,9.02,23.03c0,9.29-3.01,17.01-9.02,23.16c-6.01,6.15-13.55,9.22-22.62,9.22c-9.02,0-16.56-3.1-22.62-9.29
	c-6.06-6.19-9.09-13.87-9.09-23.03s3.03-16.81,9.09-22.96c6.06-6.1,13.6-9.16,22.62-9.16v-0.13
	C3206.09,803.05,3213.63,806.11,3219.6,812.21 M3235.9,872.73c9.92-9.83,14.88-22.33,14.88-37.5c0-15.12-4.96-27.6-14.88-37.43
	c-9.92-9.83-22.89-14.74-38.91-14.74c-16.02,0-28.97,4.91-38.84,14.74c-9.87,9.83-14.81,22.3-14.81,37.43
	c0,15.17,4.94,27.67,14.81,37.5c9.87,9.83,22.82,14.74,38.84,14.74h0.07C3213.03,887.47,3225.97,882.56,3235.9,872.73
	 M3057.1,825.94h-44.16v-41.2h-21.75v100.92h21.75v-40.8h44.16v40.8h21.88V784.74h-21.88V825.94z M2909.15,850.11
	c-2.02,4.94-5.45,9.04-10.3,12.32c-4.8,3.28-10.52,4.92-17.16,4.92c-8.98,0-16.52-3.1-22.62-9.29c-6.15-6.24-9.22-13.85-9.22-22.82
	c0-9.07,3.05-16.63,9.16-22.69c6.15-6.06,13.71-9.09,22.69-9.09c6.28,0,11.8,1.59,16.56,4.78c4.71,3.14,8.35,7.23,10.91,12.25
	l20.13-8.15c-3.55-8.61-9.45-15.62-17.71-21c-8.21-5.39-18.2-8.08-29.96-8.08c-15.39,0-28.23,4.96-38.51,14.88
	c-10.23,9.87-15.35,22.26-15.35,37.16c0,15.12,5.12,27.62,15.35,37.5c10.28,9.92,23.16,14.87,38.64,14.87
	c11.76,0,21.79-2.67,30.09-8.01c8.26-5.3,14.18-12.34,17.77-21.14l-0.2-0.2L2909.15,850.11z M2685.12,871.99
	c5.79,4.8,12.59,8.62,20.4,11.45c7.9,2.83,16.2,4.24,24.91,4.24c12.16,0,21.81-2.69,28.95-8.08c7.13-5.39,10.7-13,10.7-22.82
	c0-6.1-1.52-11.33-4.58-15.68c-3.01-4.26-6.78-7.38-11.31-9.36c-4.53-1.93-9.45-3.61-14.74-5.05c-5.3-1.43-10.21-2.51-14.74-3.23
	c-4.53-0.72-8.3-1.93-11.31-3.63c-3.06-1.7-4.58-3.81-4.58-6.33c0-6.82,5.57-10.24,16.7-10.24c11.35,0,21.18,3.03,29.48,9.09
	l11.04-15.42c-11-9.29-24.19-13.93-39.58-13.93c-11.13,0-20.49,2.72-28.07,8.14c-7.63,5.48-11.45,13.02-11.45,22.62
	c0,6.1,1.5,11.22,4.51,15.35c3.01,4.17,6.78,7.2,11.31,9.09c4.67,1.93,9.58,3.59,14.74,4.98c5.3,1.39,10.21,2.47,14.74,3.23
	c4.44,0.72,8.21,1.98,11.31,3.77c3,1.75,4.51,3.95,4.51,6.6c0,7.09-5.88,10.64-17.64,10.64c-11.94,0-23.11-3.59-33.53-10.77
	l-0.13-0.07L2685.12,871.99z M2509.7,830.86c-3.32,2.78-8.1,4.17-14.34,4.17h-16.43v-31.98h16.43c6.15,0,10.86,1.48,14.13,4.45
	c3.32,2.96,4.98,6.91,4.98,11.85h0.13C2514.62,824.28,2512.98,828.12,2509.7,830.86 M2517.05,849.51
	c6.24-2.74,11.04-6.71,14.41-11.92c3.37-5.21,5.05-11.27,5.05-18.18c0-10.28-3.7-18.65-11.11-25.11c-7.41-6.47-17.3-9.7-29.69-9.7
	h-38.44v100.92h21.74v-32.11h15.08l19.26,32.11l25.18,0.13L2517.05,849.51z M2393.12,803.59v-18.85h-69.88v100.92h69.88v-18.92
	h-48.13v-21.88h42.48v-18.38h-42.48v-22.89H2393.12z M2259.17,803.59v-18.85h-69.88v100.92h69.88v-18.92h-48.13v-21.88h42.48v-18.38
	h-42.48v-22.89H2259.17z M2095.39,830.86c-3.32,2.78-8.1,4.17-14.34,4.17h-16.42v-31.98h16.42c6.15,0,10.86,1.48,14.14,4.45
	c3.32,2.96,4.98,6.91,4.98,11.85h0.13C2100.3,824.28,2098.66,828.12,2095.39,830.86 M2102.72,849.51
	c6.24-2.74,11.04-6.71,14.41-11.92c3.37-5.21,5.05-11.27,5.05-18.18c0-10.28-3.7-18.65-11.11-25.11c-7.4-6.47-17.3-9.7-29.69-9.7
	h-38.44v100.92h21.74v-32.11h15.08l19.25,32.11l25.18,0.13L2102.72,849.51z M1929.99,809.85l14.88,37.77h-29.62L1929.99,809.85z
	 M1983.45,885.66l-41.61-100.92h-23.56l-41.81,100.92h23.7l7.88-20h43.82l7.88,20H1983.45z M1807.55,850.11
	c-2.02,4.94-5.45,9.04-10.3,12.32c-4.8,3.28-10.53,4.92-17.17,4.92c-8.98,0-16.52-3.1-22.62-9.29c-6.15-6.24-9.22-13.85-9.22-22.82
	c0-9.07,3.05-16.63,9.16-22.69c6.15-6.06,13.71-9.09,22.69-9.09c6.28,0,11.8,1.59,16.56,4.78c4.71,3.14,8.35,7.23,10.91,12.25
	l20.13-8.15c-3.55-8.61-9.45-15.62-17.71-21c-8.21-5.39-18.2-8.08-29.96-8.08c-15.39,0-28.23,4.96-38.51,14.88
	c-10.23,9.87-15.35,22.26-15.35,37.16c0,15.12,5.12,27.62,15.35,37.5c10.28,9.92,23.16,14.87,38.64,14.87
	c11.76,0,21.79-2.67,30.09-8.01c8.26-5.3,14.18-12.34,17.77-21.14l-0.2-0.2L1807.55,850.11z M1579.36,803.59v-18.85h-69.88v100.92
	h69.88v-18.92h-48.13v-21.88h42.48v-18.38h-42.48v-22.89H1579.36z M1415.58,830.86c-3.32,2.78-8.1,4.17-14.34,4.17h-16.42v-31.98
	h16.42c6.15,0,10.86,1.48,14.14,4.45c3.32,2.96,4.98,6.91,4.98,11.85h0.13C1420.5,824.28,1418.86,828.12,1415.58,830.86
	 M1422.92,849.51c6.23-2.74,11.04-6.71,14.4-11.92s5.05-11.27,5.05-18.18c0-10.28-3.7-18.65-11.11-25.11
	c-7.4-6.47-17.3-9.7-29.69-9.7h-38.44v100.92h21.74v-32.11h15.08l19.25,32.11l25.18,0.13L1422.92,849.51z M1250.19,809.85
	l14.88,37.77h-29.62L1250.19,809.85z M1303.64,885.66l-41.6-100.92h-23.56l-41.81,100.92h23.7l7.88-20h43.82l7.88,20H1303.64z
	 M1127.75,850.11c-2.02,4.94-5.45,9.04-10.3,12.32c-4.8,3.28-10.53,4.92-17.17,4.92c-8.98,0-16.52-3.1-22.62-9.29
	c-6.15-6.24-9.22-13.85-9.22-22.82c0-9.07,3.05-16.63,9.16-22.69c6.15-6.06,13.71-9.09,22.69-9.09c6.28,0,11.8,1.59,16.56,4.78
	c4.71,3.14,8.35,7.23,10.91,12.25l20.13-8.15c-3.55-8.61-9.45-15.62-17.71-21c-8.21-5.39-18.2-8.08-29.96-8.08
	c-15.39,0-28.23,4.96-38.51,14.88c-10.23,9.87-15.35,22.26-15.35,37.16c0,15.12,5.12,27.62,15.35,37.5
	c10.28,9.92,23.16,14.87,38.64,14.87c11.76,0,21.79-2.67,30.09-8.01c8.26-5.3,14.18-12.34,17.77-21.14l-0.2-0.2L1127.75,850.11z
	 M960.2,825.94h-44.16v-41.2h-21.75v100.92h21.75v-40.8h44.16v40.8h21.88V784.74H960.2V825.94z M832.78,784.74h-78.83v18.85h28.54
	v82.06h21.88v-82.06h28.41V784.74z M666.84,866.74v-82H645.1v100.92h70.01v-18.92H666.84z M532.21,809.85l14.88,37.77h-29.62
	L532.21,809.85z M585.67,885.66l-41.61-100.92H520.5L478.7,885.66h23.7l7.87-20h43.83l7.87,20H585.67z M425.79,803.59v-18.85h-69.88
	v100.92h69.88v-18.92h-48.13v-21.88h42.48v-18.38h-42.48v-22.89H425.79z M264.57,825.94h-44.16v-41.2h-21.74v100.92h21.74v-40.8
	h44.16v40.8h21.88V784.74h-21.88V825.94z"/>
<g>
	<path class="st1" d="M1161.96,417.4c0,69.27-46.93,124.39-119.18,124.39c-72.25,0-119.18-55.12-119.18-124.39
		s46.92-124.39,119.18-124.39C1115.03,293.01,1161.96,348.13,1161.96,417.4 M770.9,417.4c0,152.7,118.44,256.98,271.88,256.98
		c153.44,0,271.88-104.28,271.88-256.98s-118.44-256.98-271.88-256.98C889.33,160.42,770.9,264.7,770.9,417.4"/>
	<polygon class="st1" points="3552.34,665.44 3552.34,540.3 3325.9,540.3 3325.9,476.99 3547.13,476.99 3547.13,351.85 
		3325.9,351.85 3325.9,293.75 3552.34,293.75 3552.34,168.61 3175.44,168.61 3175.44,665.44 	"/>
	<g>
		<path class="st1" d="M2610.05,417.4c0,158.66,122.9,256.98,273.37,256.98c97.58,0,172.06-39.48,227.18-100.56V374.2h-242.08
			v123.65h96.09v21.6c-19.37,14.15-49.16,22.35-81.19,22.35c-72.25,0-120.67-55.12-120.67-124.39s48.41-124.39,120.67-124.39
			c42.46,0,75.23,23.84,91.62,54.38l126.63-64.81c-34.27-64.06-102.79-122.16-218.25-122.16
			C2732.95,160.42,2610.05,258,2610.05,417.4"/>
	</g>
	<polygon class="st1" points="2552.69,665.44 2552.69,540.3 2326.25,540.3 2326.25,476.99 2547.47,476.99 2547.47,351.85 
		2326.25,351.85 2326.25,293.75 2552.69,293.75 2552.69,168.61 2175.78,168.61 2175.78,665.44 	"/>
	<polygon class="st1" points="2114.68,665.44 2114.68,534.34 1926.23,534.34 1926.23,168.61 1775.77,168.61 1775.77,665.44 	"/>
	<polygon class="st1" points="1714.67,665.44 1714.67,534.34 1526.22,534.34 1526.22,168.61 1375.75,168.61 1375.75,665.44 	"/>
</g>
</svg>
