<svg width="85" height="66" viewBox="0 0 85 66" fill="none" xmlns="http://www.w3.org/2000/svg">
<g clip-path="url(#clip0_4073_2058)">
<path d="M81.6813 57.5581H2.72437V8.18605C2.72775 6.01601 3.59129 3.93582 5.12574 2.40137C6.66019 0.866925 8.74038 0.00338276 10.9104 0L73.4953 0C75.6653 0.00338276 77.7455 0.866925 79.28 2.40137C80.8144 3.93582 81.678 6.01601 81.6813 8.18605V57.5581ZM5.2825 55H79.1232V8.18605C79.1198 6.69447 78.5258 5.26495 77.4711 4.21025C76.4164 3.15554 74.9869 2.56152 73.4953 2.55814H10.9104C9.41884 2.56152 7.98932 3.15554 6.93461 4.21025C5.87991 5.26495 5.28588 6.69447 5.2825 8.18605V55Z" fill="#FD7961"/>
<path d="M76.3861 66H8.03256C5.90323 65.9966 3.86208 65.1492 2.35642 63.6436C0.850754 62.1379 0.00338258 60.0968 0 57.9674V55H84.4186V57.993C84.4152 60.1224 83.5679 62.1635 82.0622 63.6692C80.5565 65.1748 78.5154 66.0222 76.3861 66.0256M2.55814 57.5581V57.993C2.56825 59.4394 3.14907 60.8234 4.17427 61.8438C5.19947 62.8642 6.5861 63.4385 8.03256 63.4419H76.3861C77.8369 63.4385 79.2274 62.8606 80.2533 61.8347C81.2792 60.8088 81.8571 59.4183 81.8605 57.9674V57.5581H2.55814Z" fill="#FD7961"/>
<path d="M56.8163 61.3953H30.9279C30.0798 61.3953 29.2665 61.0585 28.6668 60.4588C28.0671 59.8591 27.7302 59.0458 27.7302 58.1977C27.7302 57.3496 28.0671 56.5363 28.6668 55.9366C29.2665 55.3369 30.0798 55 30.9279 55H56.8163C57.6643 55 58.4777 55.3369 59.0774 55.9366C59.6771 56.5363 60.0139 57.3496 60.0139 58.1977C60.0139 59.0458 59.6771 59.8591 59.0774 60.4588C58.4777 61.0585 57.6643 61.3953 56.8163 61.3953ZM30.9279 57.5581C30.7583 57.5581 30.5956 57.6255 30.4757 57.7455C30.3557 57.8654 30.2884 58.0281 30.2884 58.1977C30.2884 58.3673 30.3557 58.53 30.4757 58.6499C30.5956 58.7698 30.7583 58.8372 30.9279 58.8372H56.8163C56.9859 58.8372 57.1486 58.7698 57.2685 58.6499C57.3884 58.53 57.4558 58.3673 57.4558 58.1977C57.4558 58.0281 57.3884 57.8654 57.2685 57.7455C57.1486 57.6255 56.9859 57.5581 56.8163 57.5581H30.9279Z" fill="#FD7961"/>
<path d="M42.5163 51.8023C41.763 51.8043 41.0177 51.6474 40.3291 51.3419L27.9221 45.7779C26.9854 45.3575 26.1888 44.6774 25.6266 43.8183C25.0644 42.9592 24.7602 41.9569 24.75 40.9302V26.3744L41.9407 37.093C42.1056 37.1963 42.2962 37.2511 42.4907 37.2511C42.6852 37.2511 42.8758 37.1963 43.0407 37.093L60.8453 26.0035V40.8407C60.8435 41.8941 60.5305 42.9234 59.9456 43.7995C59.3608 44.6756 58.5302 45.3594 57.5581 45.7651L44.6395 51.3547C43.9655 51.6481 43.2386 51.8005 42.5035 51.8023M27.3081 30.9919V40.9302C27.3073 41.4703 27.4626 41.9991 27.7553 42.453C28.0481 42.9069 28.4658 43.2664 28.9581 43.4884L41.3523 49.0523C41.7089 49.2099 42.0945 49.2912 42.4843 49.2912C42.8741 49.2912 43.2597 49.2099 43.6163 49.0523L56.586 43.45C57.0866 43.2351 57.5132 42.8783 57.8133 42.4237C58.1133 41.9691 58.2736 41.4366 58.2744 40.8919V30.6593L44.3837 39.2547C43.8084 39.6143 43.1436 39.8049 42.4651 39.8049C41.7866 39.8049 41.1218 39.6143 40.5465 39.2547L27.3081 30.9919Z" fill="#FD7961"/>
<path d="M42.4906 39.7919C41.8176 39.7948 41.1572 39.6086 40.5848 39.2547L18.5464 25.5814C18.0283 25.2586 17.6009 24.8091 17.3046 24.2754C17.0083 23.7417 16.8528 23.1413 16.8528 22.5308C16.8528 21.9203 17.0083 21.3199 17.3046 20.7862C17.6009 20.2525 18.0283 19.803 18.5464 19.4802L40.5848 5.65349C41.1606 5.29531 41.8252 5.10548 42.5034 5.10548C43.1815 5.10548 43.8461 5.29531 44.422 5.65349L66.4348 19.4163C66.9529 19.7391 67.3803 20.1885 67.6766 20.7223C67.9729 21.256 68.1284 21.8564 68.1284 22.4669C68.1284 23.0773 67.9729 23.6777 67.6766 24.2115C67.3803 24.7452 66.9529 25.1946 66.4348 25.5174L44.3836 39.2547C43.8154 39.6076 43.1595 39.7937 42.4906 39.7919ZM42.4906 7.67442C42.2966 7.67373 42.1062 7.72686 41.9406 7.82791L19.8894 21.5907C19.7402 21.6813 19.6169 21.8091 19.5318 21.9615C19.4466 22.1139 19.4023 22.2858 19.4034 22.4605C19.4027 22.6382 19.4484 22.8131 19.5358 22.9679C19.6233 23.1226 19.7496 23.2519 19.9022 23.343L41.9406 37.093C42.1055 37.1963 42.2961 37.2511 42.4906 37.2511C42.6851 37.2511 42.8757 37.1963 43.0406 37.093L65.079 23.3558C65.2284 23.2622 65.3515 23.132 65.4365 22.9776C65.5216 22.8232 65.5658 22.6496 65.565 22.4733C65.5648 22.2989 65.5201 22.1274 65.435 21.9752C65.3499 21.823 65.2274 21.695 65.079 21.6035L43.0406 7.82791C42.875 7.72686 42.6846 7.67373 42.4906 7.67442Z" fill="#FD7961"/>
<path d="M20.6442 38.3721C20.0138 38.3746 19.3967 38.19 18.8713 37.8416C18.3459 37.4932 17.9357 36.9966 17.6927 36.4149C17.4496 35.8332 17.3847 35.1924 17.5062 34.5737C17.6276 33.9551 17.9299 33.3864 18.3748 32.9397C18.8197 32.493 19.3872 32.1884 20.0054 32.0645C20.6235 31.9406 21.2645 32.0029 21.8472 32.2436C22.43 32.4842 22.9281 32.8924 23.2787 33.4165C23.6292 33.9405 23.8163 34.5568 23.8163 35.1872C23.8163 36.0297 23.4825 36.8378 22.888 37.4348C22.2935 38.0317 21.4867 38.3687 20.6442 38.3721ZM20.6442 34.5349C20.5197 34.5323 20.3973 34.5669 20.2926 34.6342C20.1879 34.7015 20.1055 34.7985 20.0561 34.9128C20.0067 35.0271 19.9925 35.1535 20.0152 35.2759C20.0379 35.3983 20.0966 35.5111 20.1837 35.6001C20.2708 35.689 20.3825 35.75 20.5044 35.7752C20.6263 35.8005 20.7529 35.7888 20.8682 35.7418C20.9835 35.6947 21.0821 35.6144 21.1516 35.5111C21.221 35.4078 21.2581 35.2861 21.2582 35.1616C21.2582 34.9976 21.1939 34.8401 21.0791 34.7229C20.9644 34.6057 20.8082 34.5382 20.6442 34.5349Z" fill="#FD7961"/>
<path d="M22.371 51.7512L21.6547 51.5593C21.2582 51.4314 20.5931 51.0221 20.8361 49.7814C20.9642 49.1807 21.0115 48.5656 20.9768 47.9523C20.9622 47.5224 20.9108 47.0945 20.8234 46.6733C20.5146 46.8233 20.1789 46.9097 19.8361 46.9273C19.4933 46.9449 19.1505 46.8933 18.828 46.7756C16.6536 45.9058 16.6792 42.2988 17.2036 40.2395C17.6001 38.6663 18.5722 36.0186 20.5931 35.8907C23.228 35.75 25.1338 40.0861 25.428 43.1558C25.7188 46.1056 24.8263 49.05 22.9466 51.3419L22.371 51.7512ZM21.092 44.0767C21.456 44.0779 21.8134 44.175 22.128 44.3581C22.4331 44.5269 22.6956 44.7632 22.8954 45.0488C22.9471 44.5129 22.9471 43.9732 22.8954 43.4372C22.7942 41.5983 22.0467 39.8543 20.785 38.5128C20.238 39.2174 19.8654 40.0413 19.6978 40.9174C19.3637 42.058 19.395 43.2746 19.7873 44.3965H19.9408C20.3054 44.2409 20.6957 44.1542 21.092 44.1407" fill="#FD7961"/>
<path d="M20.6441 34.7395C20.3049 34.7395 19.9796 34.6048 19.7397 34.3649C19.4998 34.125 19.3651 33.7997 19.3651 33.4605V25.1977C19.3616 24.8892 19.4697 24.5899 19.6695 24.3548C19.8693 24.1198 20.1473 23.9649 20.4523 23.9186L42.6058 20.6442C42.945 20.595 43.2899 20.6826 43.5645 20.8877C43.8392 21.0928 44.0211 21.3986 44.0703 21.7378C44.1195 22.077 44.0319 22.4219 43.8268 22.6966C43.6217 22.9712 43.3159 23.1531 42.9767 23.2023L21.9232 26.2977V33.4605C21.9232 33.7997 21.7885 34.125 21.5486 34.3649C21.3087 34.6048 20.9834 34.7395 20.6441 34.7395Z" fill="#FD7961"/>
</g>
<defs>
<clipPath id="clip0_4073_2058">
<rect width="84.4186" height="66" fill="white"/>
</clipPath>
</defs>
</svg>
