<svg width="60" height="70" viewBox="0 0 60 70" fill="none" xmlns="http://www.w3.org/2000/svg">
<path d="M52.5547 7.875L38.9375 0L37.5156 2.46094L51.1328 10.3359L52.5547 7.875ZM16.4062 61.4141V70H53.5938V61.4141H35H16.4062ZM50.75 67.1562H19.25V64.3125H50.8047V67.1562H50.75ZM59.3359 37.0781C59.3359 28.2734 54.6875 20.5625 47.6875 16.2969L50.4219 11.5938L36.75 3.71875L20.2891 32.2656L33.9062 40.1406L41.9453 26.25C45.5 28.5469 47.8516 32.5391 47.8516 37.0781C47.8516 44.1875 42.1094 49.9844 34.9453 49.9844C31.8828 49.9844 29.0938 48.8906 26.8516 47.1406H30.625V44.2969H10.6641V47.1406H12.0859L13.5078 48.5625L13.7266 48.9453C17.8828 56.3828 25.8672 61.4688 35 61.4688C48.4531 61.4141 59.3359 50.5312 59.3359 37.0781ZM32.9219 36.2031L24.2266 31.1719L37.8437 7.65625L46.4844 12.6328L32.9219 36.2031ZM35 58.5156C27.4531 58.5156 20.7812 54.6328 16.9531 48.7266C16.7891 48.4531 16.2969 47.7422 15.8594 47.0859H22.8047C25.7031 50.5859 30.0781 52.8281 34.9453 52.8281C43.6406 52.8281 50.6953 45.7734 50.6953 37.0781C50.6953 31.4453 47.7422 26.5234 43.3672 23.7344L46.2109 18.7578C52.3359 22.5312 56.4375 29.3125 56.4375 37.0234C56.4922 48.9453 46.8672 58.5156 35 58.5156ZM20.8359 34.1797L20.125 35.4375L30.0234 41.1797L30.7344 39.9219L20.8359 34.1797Z" fill="#FD7961"/>
</svg>
