<svg width="73" height="73" viewBox="0 0 73 73" fill="none" xmlns="http://www.w3.org/2000/svg">
<g id="Line 07 1" clip-path="url(#clip0_3930_1191)">
<g id="Layer 2">
<g id="Layer 1">
<path id="Vector" d="M15.8278 65.65H2.35596V22.816C2.35888 20.9323 3.10562 19.1267 4.43252 17.7947C5.75941 16.4628 7.55823 15.7132 9.43474 15.7103H15.8278V65.65ZM4.56808 63.4295H13.6157V17.9086H9.43474C8.14492 17.9115 6.90876 18.4272 5.99672 19.3427C5.08467 20.2582 4.571 21.499 4.56808 22.7938V63.4295Z" fill="#B573FF"/>
<path id="Vector_2" d="M70.6329 65.65H58.8755V15.688H63.5541C65.4306 15.691 67.2295 16.4406 68.5564 17.7725C69.8833 19.1044 70.63 20.9101 70.6329 22.7938V65.65ZM61.0876 63.4295H68.4208V22.816C68.4179 21.5212 67.9042 20.2804 66.9922 19.3649C66.0801 18.4493 64.8439 17.9337 63.5541 17.9308H61.0876V63.4295Z" fill="#B573FF"/>
<path id="Vector_3" d="M66.0539 73H6.94606C5.10283 72.9971 3.3361 72.26 2.03378 70.9506C0.73146 69.6413 -2.32942e-06 67.8667 0 66.0164L0 63.4295H73V66.0164C73 67.8667 72.2685 69.6413 70.9662 70.9506C69.6639 72.26 67.8972 72.9971 66.0539 73ZM2.21212 65.65V66.0164C2.21212 67.2777 2.71052 68.4876 3.59799 69.3805C4.48546 70.2734 5.68953 70.7765 6.94606 70.7795H66.0539C67.3105 70.7765 68.5145 70.2734 69.402 69.3805C70.2895 68.4876 70.7879 67.2777 70.7879 66.0164V65.65H2.21212Z" fill="#B573FF"/>
<path id="Vector_4" d="M49.1313 68.9808H26.7446C26.0113 68.9808 25.308 68.6884 24.7894 68.1679C24.2708 67.6473 23.9795 66.9413 23.9795 66.2052C23.9795 65.469 24.2708 64.763 24.7894 64.2425C25.308 63.7219 26.0113 63.4295 26.7446 63.4295H49.1313C49.8647 63.4295 50.568 63.7219 51.0866 64.2425C51.6051 64.763 51.8965 65.469 51.8965 66.2052C51.8965 66.9413 51.6051 67.6473 51.0866 68.1679C50.568 68.6884 49.8647 68.9808 49.1313 68.9808ZM26.7446 65.65C26.598 65.65 26.4573 65.7085 26.3536 65.8126C26.2499 65.9167 26.1916 66.0579 26.1916 66.2052C26.1916 66.3524 26.2499 66.4936 26.3536 66.5977C26.4573 66.7018 26.598 66.7603 26.7446 66.7603H49.1313C49.278 66.7603 49.4186 66.7018 49.5224 66.5977C49.6261 66.4936 49.6843 66.3524 49.6843 66.2052C49.6843 66.0579 49.6261 65.9167 49.5224 65.8126C49.4186 65.7085 49.278 65.65 49.1313 65.65H26.7446Z" fill="#B573FF"/>
<path id="Vector_5" d="M59.9818 65.65H14.7218C14.4284 65.65 14.1471 65.5331 13.9397 65.3249C13.7323 65.1166 13.6157 64.8342 13.6157 64.5398V1.11027C13.6157 0.815805 13.7323 0.533405 13.9397 0.325189C14.1471 0.116974 14.4284 0 14.7218 0L46.7975 0C47.0839 0.00411181 47.3574 0.11953 47.5607 0.321977L60.7228 13.09C60.8287 13.1942 60.9126 13.3186 60.9696 13.4559C61.0266 13.5932 61.0555 13.7407 61.0547 13.8894V64.5398C61.0547 64.8342 60.9381 65.1166 60.7307 65.3249C60.5233 65.5331 60.2419 65.65 59.9486 65.65M15.7947 63.4295H58.8757V14.3557L46.3772 2.22053H15.8278L15.7947 63.4295Z" fill="#B573FF"/>
<path id="Vector_6" d="M59.9816 14.9886H46.8194C46.5261 14.9886 46.2448 14.8716 46.0373 14.6634C45.8299 14.4552 45.7134 14.1728 45.7134 13.8783V1.11025C45.7181 0.897613 45.7835 0.6908 45.9019 0.514415C46.0203 0.338029 46.1867 0.199494 46.3813 0.115287C46.5758 0.0310809 46.7904 0.00474681 46.9995 0.0394177C47.2085 0.0740885 47.4032 0.168305 47.5605 0.310861L60.7226 13.0789C60.8818 13.2329 60.9913 13.4312 61.0371 13.6483C61.0829 13.8654 61.0629 14.0913 60.9795 14.2969C60.8962 14.5024 60.7534 14.6781 60.5696 14.8014C60.3858 14.9247 60.1694 14.9899 59.9484 14.9886M47.8923 12.768H57.2164L47.9255 3.73048L47.8923 12.768Z" fill="#B573FF"/>
<path id="Vector_7" d="M55.5906 19.8071H28.3373C28.0439 19.8071 27.7626 19.6902 27.5552 19.482C27.3477 19.2737 27.2312 18.9913 27.2312 18.6969C27.2312 18.4024 27.3477 18.12 27.5552 17.9118C27.7626 17.7036 28.0439 17.5866 28.3373 17.5866H55.5906C55.8839 17.5866 56.1653 17.7036 56.3727 17.9118C56.5801 18.12 56.6967 18.4024 56.6967 18.6969C56.6967 18.9913 56.5801 19.2737 56.3727 19.482C56.1653 19.6902 55.8839 19.8071 55.5906 19.8071Z" fill="#B573FF"/>
<path id="Vector_8" d="M22.0548 21.0062C21.9092 21.0071 21.7649 20.9791 21.6301 20.9238C21.4954 20.8686 21.3728 20.7872 21.2694 20.6843L19.4113 18.8745C19.1971 18.661 19.0762 18.3709 19.0752 18.068C19.0742 17.765 19.1931 17.4741 19.4057 17.2591C19.6184 17.0441 19.9074 16.9228 20.2093 16.9218C20.5111 16.9207 20.8009 17.0401 21.0151 17.2535L22.1211 18.3638L25.9038 15.033C26.1258 14.8536 26.4082 14.767 26.6922 14.7915C26.9761 14.8159 27.2397 14.9494 27.428 15.1642C27.6163 15.379 27.7147 15.6584 27.7027 15.9442C27.6908 16.2301 27.5694 16.5002 27.3638 16.6984L22.7848 20.7287C22.5831 20.9072 22.3236 21.0059 22.0548 21.0062Z" fill="#B573FF"/>
<path id="Vector_9" d="M55.5906 30.7544H28.3373C28.0439 30.7544 27.7626 30.6374 27.5552 30.4292C27.3477 30.221 27.2312 29.9386 27.2312 29.6441C27.2312 29.3496 27.3477 29.0672 27.5552 28.859C27.7626 28.6508 28.0439 28.5338 28.3373 28.5338H55.5906C55.8839 28.5338 56.1653 28.6508 56.3727 28.859C56.5801 29.0672 56.6967 29.3496 56.6967 29.6441C56.6967 29.9386 56.5801 30.221 56.3727 30.4292C56.1653 30.6374 55.8839 30.7544 55.5906 30.7544Z" fill="#B573FF"/>
<path id="Vector_10" d="M22.0548 31.9534C21.9093 31.9543 21.765 31.9263 21.6302 31.871C21.4954 31.8158 21.3729 31.7344 21.2695 31.6315L19.4113 29.7662C19.3089 29.6605 19.2283 29.5356 19.174 29.3986C19.1197 29.2616 19.0928 29.1152 19.0948 28.9678C19.0969 28.8204 19.1279 28.6748 19.186 28.5394C19.2441 28.4039 19.3282 28.2813 19.4335 28.1785C19.5388 28.0758 19.6632 27.9948 19.7997 27.9403C19.9362 27.8858 20.082 27.8588 20.2289 27.8608C20.3758 27.8629 20.5208 27.894 20.6557 27.9523C20.7906 28.0106 20.9127 28.095 21.0151 28.2007L22.1212 29.311L25.915 25.9802C26.1369 25.8008 26.4193 25.7142 26.7033 25.7387C26.9872 25.7631 27.2508 25.8966 27.4391 26.1114C27.6274 26.3262 27.7258 26.6056 27.7139 26.8914C27.7019 27.1773 27.5805 27.4474 27.375 27.6456L22.7848 31.6759C22.5832 31.8544 22.3237 31.9531 22.0548 31.9534Z" fill="#B573FF"/>
<path id="Vector_11" d="M55.5906 41.6905H28.3373C28.0439 41.6905 27.7626 41.5735 27.5552 41.3653C27.3477 41.1571 27.2312 40.8747 27.2312 40.5802C27.2312 40.2858 27.3477 40.0034 27.5552 39.7952C27.7626 39.5869 28.0439 39.47 28.3373 39.47H55.5906C55.8839 39.47 56.1653 39.5869 56.3727 39.7952C56.5801 40.0034 56.6967 40.2858 56.6967 40.5802C56.6967 40.8747 56.5801 41.1571 56.3727 41.3653C56.1653 41.5735 55.8839 41.6905 55.5906 41.6905Z" fill="#B573FF"/>
<path id="Vector_12" d="M22.0548 42.9007C21.9093 42.9015 21.765 42.8735 21.6302 42.8183C21.4954 42.763 21.3729 42.6816 21.2695 42.5787L19.4113 40.7135C19.3089 40.6078 19.2283 40.4828 19.174 40.3458C19.1197 40.2088 19.0928 40.0625 19.0948 39.915C19.0969 39.7676 19.1279 39.622 19.186 39.4866C19.2441 39.3512 19.3282 39.2286 19.4335 39.1258C19.5388 39.023 19.6632 38.942 19.7997 38.8875C19.9362 38.833 20.082 38.806 20.2289 38.8081C20.3758 38.8101 20.5208 38.8412 20.6557 38.8995C20.7906 38.9579 20.9127 39.0423 21.0151 39.148L22.1212 40.2582L25.915 36.9274C26.1369 36.748 26.4193 36.6615 26.7033 36.6859C26.9872 36.7104 27.2508 36.8439 27.4391 37.0587C27.6274 37.2734 27.7258 37.5528 27.7139 37.8387C27.7019 38.1245 27.5805 38.3947 27.375 38.5928L22.7848 42.6231C22.5832 42.8016 22.3237 42.9003 22.0548 42.9007Z" fill="#B573FF"/>
<path id="Vector_13" d="M55.5906 52.3602H28.3373C28.0439 52.3602 27.7626 52.2432 27.5552 52.035C27.3477 51.8267 27.2312 51.5443 27.2312 51.2499C27.2312 50.9554 27.3477 50.673 27.5552 50.4648C27.7626 50.2566 28.0439 50.1396 28.3373 50.1396H55.5906C55.8839 50.1396 56.1653 50.2566 56.3727 50.4648C56.5801 50.673 56.6967 50.9554 56.6967 51.2499C56.6967 51.5443 56.5801 51.8267 56.3727 52.035C56.1653 52.2432 55.8839 52.3602 55.5906 52.3602Z" fill="#B573FF"/>
<path id="Vector_14" d="M22.0548 53.5703C21.9092 53.5712 21.7649 53.5432 21.6302 53.4879C21.4954 53.4327 21.3728 53.3512 21.2695 53.2483L19.4113 51.3831C19.3082 51.2774 19.2268 51.1523 19.1718 51.0151C19.1168 50.8778 19.0893 50.731 19.0909 50.583C19.0924 50.4351 19.123 50.2889 19.1808 50.1528C19.2386 50.0167 19.3226 49.8934 19.4279 49.7899C19.5332 49.6864 19.6578 49.6047 19.7945 49.5495C19.9313 49.4943 20.0775 49.4667 20.2249 49.4682C20.3723 49.4698 20.518 49.5004 20.6535 49.5585C20.7891 49.6165 20.912 49.7008 21.0151 49.8065L22.1212 50.9168L25.9039 47.586C26.1258 47.4065 26.4082 47.32 26.6922 47.3445C26.9761 47.3689 27.2397 47.5024 27.428 47.7172C27.6163 47.932 27.7147 48.2114 27.7028 48.4972C27.6908 48.783 27.5694 49.0532 27.3639 49.2514L22.7848 53.2928C22.5832 53.4713 22.3236 53.5699 22.0548 53.5703Z" fill="#B573FF"/>
</g>
</g>
</g>
<defs>
<clipPath id="clip0_3930_1191">
<rect width="73" height="73" fill="white"/>
</clipPath>
</defs>
</svg>
