<svg width="54" height="54" viewBox="0 0 54 54" fill="none" xmlns="http://www.w3.org/2000/svg">
<rect width="54" height="54" rx="10" fill="#ECEADE"/>
<path d="M26.0625 17.9697C26.0625 17.501 26.4727 17.0322 27 17.0322C27.4688 17.0322 27.9375 17.501 27.9375 17.9697V25.9385L33.0938 29.3955C33.5625 29.6885 33.6797 30.2744 33.3867 30.6846C33.0938 31.1533 32.5078 31.2705 32.0977 30.9775L26.4727 27.2275C26.1797 27.0518 26.0039 26.7588 26.0039 26.4072L26.0625 17.9697ZM27 11.4072C35.2617 11.4072 42 18.1455 42 26.4072C42 34.7275 35.2617 41.4072 27 41.4072C18.6797 41.4072 12 34.7275 12 26.4072C12 18.1455 18.6797 11.4072 27 11.4072ZM13.875 26.4072C13.875 33.6729 19.7344 39.5322 27 39.5322C34.207 39.5322 40.125 33.6729 40.125 26.4072C40.125 19.2002 34.207 13.2822 27 13.2822C19.7344 13.2822 13.875 19.2002 13.875 26.4072Z" fill="#00C269"/>
</svg>
