<svg width="54" height="54" viewBox="0 0 54 54" fill="none" xmlns="http://www.w3.org/2000/svg">
<rect width="54" height="54" rx="10" fill="#ECEADE"/>
<path d="M36.8294 30.2105L32.4397 28.3169C31.6651 28.0156 30.7183 28.2308 30.2019 28.9194L28.7387 30.6408C26.5008 29.3928 24.6072 27.4992 23.3592 25.2613L25.1236 23.8412C25.7692 23.2817 25.9843 22.3349 25.6401 21.5603L23.7895 17.1706C23.4022 16.3099 22.4554 15.8365 21.5516 16.0516L17.5063 16.9984C16.6025 17.1706 16 17.9452 16 18.892C16 29.4358 24.5642 38 35.108 38C36.0548 38 36.8294 37.3975 37.0446 36.4937L37.9484 32.4484C38.1635 31.5446 37.6901 30.5978 36.8294 30.2105ZM35.6674 36.1925C35.6244 36.4507 35.4092 36.6659 35.108 36.6659C25.3388 36.6659 17.3772 28.6612 17.3772 18.892C17.3772 18.5908 17.5493 18.3756 17.8075 18.3326L21.8529 17.3858C21.8959 17.3858 21.939 17.3427 21.982 17.3427C22.1972 17.3427 22.4124 17.5149 22.5415 17.73L24.392 22.0767C24.4781 22.3349 24.4351 22.5931 24.2199 22.7653L22.0681 24.5297C21.8099 24.7449 21.7238 25.0892 21.8959 25.3905C23.3161 28.2739 25.7261 30.6839 28.6526 32.1041C28.9108 32.2762 29.2551 32.1901 29.4703 31.9319L31.2347 29.7801C31.4069 29.5649 31.6651 29.5219 31.9233 29.608L36.27 31.4585C36.5282 31.5876 36.7003 31.8459 36.6142 32.1471L35.6674 36.1925Z" fill="#00C269"/>
</svg>
