<svg width="20" height="20" viewBox="0 0 20 20" fill="none" xmlns="http://www.w3.org/2000/svg">
<circle cx="10" cy="10" r="10" fill="#F2F2F2"/>
<g clip-path="url(#clip0_4074_4372)">
<path d="M10 4.16634C8.41567 4.16634 8.21706 4.17306 7.59488 4.20147C6.97408 4.22975 6.54996 4.3283 6.17896 4.47255C5.79533 4.62161 5.47004 4.82105 5.14571 5.14538C4.82137 5.46972 4.62194 5.79501 4.47288 6.17864C4.32876 6.54964 4.23008 6.97362 4.2018 7.59456C4.17339 8.21688 4.16667 8.41534 4.16667 9.99967C4.16667 11.5839 4.17339 11.7826 4.2018 12.4048C4.23008 13.0256 4.32876 13.4497 4.47288 13.8207C4.62194 14.2043 4.82137 14.5296 5.14571 14.8538C5.47004 15.1782 5.79533 15.3776 6.17896 15.5268C6.54996 15.6709 6.97408 15.7696 7.59488 15.7979C8.21706 15.8263 8.41567 15.833 10 15.833C11.5842 15.833 11.7828 15.8263 12.405 15.7979C13.0259 15.7696 13.45 15.6709 13.821 15.5268C14.2047 15.3776 14.53 15.1782 14.8543 14.8538C15.1785 14.5296 15.3781 14.2043 15.5271 13.8207C15.6712 13.4497 15.7699 13.0256 15.7982 12.4048C15.8266 11.7826 15.8333 11.5839 15.8333 9.99967C15.8333 8.41548 15.8266 8.21688 15.7982 7.59456C15.7699 6.97362 15.6712 6.54964 15.5271 6.17864C15.3781 5.79501 15.1785 5.46972 14.8543 5.14538C14.53 4.82105 14.2047 4.62161 13.821 4.47255C13.45 4.3283 13.0259 4.22975 12.405 4.20147C11.7828 4.17306 11.5842 4.16634 10 4.16634ZM10 5.21744C11.5576 5.21744 11.742 5.22334 12.3572 5.25134C12.9259 5.27742 13.2347 5.37241 13.4403 5.45229C13.7126 5.55811 13.907 5.68452 14.1111 5.88862C14.3152 6.09272 14.4416 6.28706 14.5474 6.55924C14.6273 6.76485 14.7223 7.07367 14.7483 7.64246C14.7763 8.25763 14.7822 8.44211 14.7822 9.99967C14.7822 11.5572 14.7763 11.7417 14.7483 12.3569C14.7223 12.9255 14.6273 13.2345 14.5474 13.44C14.4416 13.7123 14.3152 13.9066 14.1111 14.1107C13.907 14.3148 13.7126 14.4412 13.4403 14.5471C13.2347 14.6269 12.9259 14.7221 12.3572 14.7479C11.742 14.776 11.5577 14.7819 10 14.7819C8.44229 14.7819 8.25782 14.776 7.64278 14.7479C7.07413 14.7221 6.76518 14.6269 6.55971 14.5471C6.28739 14.4412 6.09304 14.3148 5.88894 14.1107C5.68484 13.9066 5.55843 13.7123 5.45261 13.44C5.37272 13.2345 5.27774 12.9255 5.25166 12.3569C5.22366 11.7417 5.21777 11.5572 5.21777 9.99967C5.21777 8.44211 5.22366 8.25763 5.25166 7.64246C5.27774 7.07367 5.37272 6.76485 5.45261 6.55924C5.55843 6.28706 5.68471 6.09272 5.88894 5.88862C6.09304 5.68452 6.28739 5.55811 6.55971 5.45229C6.76518 5.37241 7.07413 5.27742 7.64278 5.25134C8.25796 5.22334 8.44243 5.21744 10 5.21744Z" fill="#3C3C3C"/>
<path d="M10 11.9442C8.92612 11.9442 8.05551 11.0735 8.05551 9.99966C8.05551 8.92578 8.92612 8.05517 10 8.05517C11.0739 8.05517 11.9445 8.92578 11.9445 9.99966C11.9445 11.0735 11.0739 11.9442 10 11.9442ZM10 7.00421C8.34567 7.00421 7.00455 8.34533 7.00455 9.99966C7.00455 11.654 8.34567 12.9951 10 12.9951C11.6543 12.9951 12.9955 11.654 12.9955 9.99966C12.9955 8.34533 11.6543 7.00421 10 7.00421Z" fill="#3C3C3C"/>
<path d="M13.8138 6.88594C13.8138 7.27258 13.5004 7.58594 13.1139 7.58594C12.7273 7.58594 12.4139 7.27258 12.4139 6.88594C12.4139 6.49929 12.7273 6.18594 13.1139 6.18594C13.5004 6.18594 13.8138 6.49929 13.8138 6.88594Z" fill="#3C3C3C"/>
</g>
<defs>
<clipPath id="clip0_4074_4372">
<rect width="11.6667" height="11.6667" fill="white" transform="translate(4.16667 4.1665)"/>
</clipPath>
</defs>
</svg>
