<svg width="54" height="54" viewBox="0 0 54 54" fill="none" xmlns="http://www.w3.org/2000/svg">
<rect width="54" height="54" rx="10" fill="#ECEADE"/>
<g clip-path="url(#clip0_4074_4358)">
<path fill-rule="evenodd" clip-rule="evenodd" d="M26.9431 14.7676H27.0569L27.0588 14.7676C30.0933 14.7831 32.9979 16.0015 35.1354 18.1556C37.2729 20.3096 38.469 23.2234 38.4612 26.258C38.4534 29.2927 37.2425 32.2003 35.0939 34.3434C32.9454 36.4864 30.0346 37.6899 27 37.6899C23.9654 37.6899 21.0546 36.4864 18.9061 34.3434C16.7575 32.2003 15.5466 29.2927 15.5388 26.258C15.531 23.2234 16.727 20.3096 18.8646 18.1556C21.0021 16.0015 23.9066 14.7831 26.9412 14.7676L26.9431 14.7676ZM26.9468 16.2002C24.2922 16.2143 21.7514 17.2804 19.8815 19.1647C18.0112 21.0495 16.9647 23.5991 16.9715 26.2544C16.9783 28.9097 18.0378 31.4539 19.9178 33.329C21.7978 35.2042 24.3447 36.2572 27 36.2572C29.6553 36.2572 32.2022 35.2042 34.0822 33.329C35.9621 31.4539 37.0217 28.9097 37.0285 26.2544C37.0353 23.5991 35.9888 21.0495 34.1185 19.1647C32.2486 17.2804 29.7078 16.2143 27.0532 16.2002H26.9468Z" fill="#00C269"/>
<path fill-rule="evenodd" clip-rule="evenodd" d="M22.1178 20.2729C22.9923 18.3897 24.2672 16.7201 25.8535 15.3804L26.4935 16.1381C25.0174 17.3847 23.8311 18.9384 23.0174 20.6907C22.9487 20.8385 22.8829 20.9874 22.8198 21.1374C24.0079 21.5141 25.2469 21.7303 26.5041 21.7753V15.4837H27.4959V21.7753C28.7531 21.7303 29.9922 21.5141 31.1802 21.1374C31.1171 20.9874 31.0513 20.8385 30.9826 20.6907C30.1689 18.9384 28.9826 17.3847 27.5066 16.1381L28.1465 15.3804C29.7328 16.7201 31.0077 18.3897 31.8822 20.2729C31.9637 20.4483 32.0415 20.6252 32.1156 20.8034C33.1424 20.3946 34.1224 19.8619 35.0324 19.2127L35.6084 20.0201C34.6278 20.7197 33.5715 21.293 32.4645 21.732C32.8986 23.022 33.1465 24.3692 33.1991 25.7327H37.7449V26.7246H33.203C33.1607 28.0914 32.9223 29.4429 32.4968 30.7381C33.5921 31.1755 34.6374 31.7444 35.6084 32.4372L35.0324 33.2446C34.1339 32.6036 33.1672 32.0762 32.1546 31.6695C32.0689 31.8797 31.9781 32.0882 31.8822 32.2946C31.0077 34.1778 29.7328 35.8474 28.1465 37.1871L27.5066 36.4293C28.9826 35.1828 30.1689 33.6291 30.9826 31.8768C31.0661 31.6971 31.1455 31.5157 31.2207 31.3328C30.0203 30.9481 28.7674 30.7275 27.4959 30.6819V36.9735H26.5041V30.6819C25.2327 30.7275 23.9797 30.9481 22.7794 31.3328C22.8546 31.5157 22.9339 31.6971 23.0174 31.8768C23.8311 33.6291 25.0174 35.1828 26.4935 36.4293L25.8535 37.1871C24.2672 35.8474 22.9923 34.1778 22.1178 32.2946C22.0219 32.0882 21.9312 31.8797 21.8455 31.6695C20.8328 32.0762 19.8661 32.6036 18.9676 33.2446L18.3916 32.4372C19.3626 31.7444 20.4079 31.1755 21.5032 30.7381C21.0777 29.4429 20.8393 28.0914 20.797 26.7246H16.2551V25.7327H20.8009C20.8536 24.3692 21.1015 23.022 21.5355 21.732C20.4285 21.293 19.3722 20.7197 18.3916 20.0201L18.9676 19.2127C19.8777 19.8619 20.8576 20.3946 21.8844 20.8034C21.9585 20.6252 22.0363 20.4483 22.1178 20.2729ZM22.4694 22.0667C22.0734 23.2494 21.8454 24.4835 21.7935 25.7327H26.5041V22.7678C25.1267 22.7217 23.7693 22.484 22.4694 22.0667ZM27.4959 22.7678V25.7327H32.2065C32.1546 24.4835 31.9267 23.2494 31.5306 22.0667C30.2307 22.484 28.8733 22.7217 27.4959 22.7678ZM32.2106 26.7246H27.4959V29.6895C28.8849 29.736 30.2537 29.9773 31.5635 30.4012C31.9507 29.214 32.1691 27.9763 32.2106 26.7246ZM26.5041 29.6895V26.7246H21.7894C21.831 27.9763 22.0494 29.214 22.4365 30.4012C23.7463 29.9773 25.1151 29.736 26.5041 29.6895Z" fill="#00C269"/>
</g>
<defs>
<clipPath id="clip0_4074_4358">
<rect width="23.1429" height="23.1429" fill="white" transform="translate(15.4286 14.6572)"/>
</clipPath>
</defs>
</svg>
